<?xml version="1.0" encoding="utf-8" standalone="no"?>
<!DOCTYPE svg PUBLIC "-//W3C//DTD SVG 1.1//EN"
  "http://www.w3.org/Graphics/SVG/1.1/DTD/svg11.dtd">
<svg xmlns:xlink="http://www.w3.org/1999/xlink" width="864pt" height="432pt" viewBox="0 0 864 432" xmlns="http://www.w3.org/2000/svg" version="1.1">
 <metadata>
  <rdf:RDF xmlns:dc="http://purl.org/dc/elements/1.1/" xmlns:cc="http://creativecommons.org/ns#" xmlns:rdf="http://www.w3.org/1999/02/22-rdf-syntax-ns#">
   <cc:Work>
    <dc:type rdf:resource="http://purl.org/dc/dcmitype/StillImage"/>
    <dc:date>2022-07-26T15:41:18.356427</dc:date>
    <dc:format>image/svg+xml</dc:format>
    <dc:creator>
     <cc:Agent>
      <dc:title>Matplotlib v3.5.2, https://matplotlib.org/</dc:title>
     </cc:Agent>
    </dc:creator>
   </cc:Work>
  </rdf:RDF>
 </metadata>
 <defs>
  <style type="text/css">*{stroke-linejoin: round; stroke-linecap: butt}</style>
 </defs>
 <g id="figure_1">
  <g id="patch_1">
   <path d="M 0 432 
L 864 432 
L 864 0 
L 0 0 
L 0 432 
z
" style="fill: none"/>
  </g>
  <g id="axes_1">
   <g id="patch_2">
    <path d="M 108 200.094545 
L 304.941176 200.094545 
L 304.941176 51.84 
L 108 51.84 
z
" style="fill: #ffffff"/>
   </g>
   <g id="matplotlib.axis_1">
    <g id="xtick_1">
     <g id="line2d_1">
      <defs>
       <path id="m64089776c0" d="M 0 0 
L 0 3.5 
" style="stroke: #000000; stroke-width: 0.8"/>
      </defs>
      <g>
       <use xlink:href="#m64089776c0" x="116.951872" y="200.094545" style="stroke: #000000; stroke-width: 0.8"/>
      </g>
     </g>
     <g id="text_1">
      <!-- 0 -->
      <g transform="translate(113.770622 214.692983)scale(0.1 -0.1)">
       <defs>
        <path id="DejaVuSans-30" d="M 2034 4250 
Q 1547 4250 1301 3770 
Q 1056 3291 1056 2328 
Q 1056 1369 1301 889 
Q 1547 409 2034 409 
Q 2525 409 2770 889 
Q 3016 1369 3016 2328 
Q 3016 3291 2770 3770 
Q 2525 4250 2034 4250 
z
M 2034 4750 
Q 2819 4750 3233 4129 
Q 3647 3509 3647 2328 
Q 3647 1150 3233 529 
Q 2819 -91 2034 -91 
Q 1250 -91 836 529 
Q 422 1150 422 2328 
Q 422 3509 836 4129 
Q 1250 4750 2034 4750 
z
" transform="scale(0.015625)"/>
       </defs>
       <use xlink:href="#DejaVuSans-30"/>
      </g>
     </g>
    </g>
    <g id="xtick_2">
     <g id="line2d_2">
      <g>
       <use xlink:href="#m64089776c0" x="176.830612" y="200.094545" style="stroke: #000000; stroke-width: 0.8"/>
      </g>
     </g>
     <g id="text_2">
      <!-- 100 -->
      <g transform="translate(167.286862 214.692983)scale(0.1 -0.1)">
       <defs>
        <path id="DejaVuSans-31" d="M 794 531 
L 1825 531 
L 1825 4091 
L 703 3866 
L 703 4441 
L 1819 4666 
L 2450 4666 
L 2450 531 
L 3481 531 
L 3481 0 
L 794 0 
L 794 531 
z
" transform="scale(0.015625)"/>
       </defs>
       <use xlink:href="#DejaVuSans-31"/>
       <use xlink:href="#DejaVuSans-30" x="63.623047"/>
       <use xlink:href="#DejaVuSans-30" x="127.246094"/>
      </g>
     </g>
    </g>
    <g id="xtick_3">
     <g id="line2d_3">
      <g>
       <use xlink:href="#m64089776c0" x="236.709352" y="200.094545" style="stroke: #000000; stroke-width: 0.8"/>
      </g>
     </g>
     <g id="text_3">
      <!-- 200 -->
      <g transform="translate(227.165602 214.692983)scale(0.1 -0.1)">
       <defs>
        <path id="DejaVuSans-32" d="M 1228 531 
L 3431 531 
L 3431 0 
L 469 0 
L 469 531 
Q 828 903 1448 1529 
Q 2069 2156 2228 2338 
Q 2531 2678 2651 2914 
Q 2772 3150 2772 3378 
Q 2772 3750 2511 3984 
Q 2250 4219 1831 4219 
Q 1534 4219 1204 4116 
Q 875 4013 500 3803 
L 500 4441 
Q 881 4594 1212 4672 
Q 1544 4750 1819 4750 
Q 2544 4750 2975 4387 
Q 3406 4025 3406 3419 
Q 3406 3131 3298 2873 
Q 3191 2616 2906 2266 
Q 2828 2175 2409 1742 
Q 1991 1309 1228 531 
z
" transform="scale(0.015625)"/>
       </defs>
       <use xlink:href="#DejaVuSans-32"/>
       <use xlink:href="#DejaVuSans-30" x="63.623047"/>
       <use xlink:href="#DejaVuSans-30" x="127.246094"/>
      </g>
     </g>
    </g>
    <g id="xtick_4">
     <g id="line2d_4">
      <g>
       <use xlink:href="#m64089776c0" x="296.588092" y="200.094545" style="stroke: #000000; stroke-width: 0.8"/>
      </g>
     </g>
     <g id="text_4">
      <!-- 300 -->
      <g transform="translate(287.044342 214.692983)scale(0.1 -0.1)">
       <defs>
        <path id="DejaVuSans-33" d="M 2597 2516 
Q 3050 2419 3304 2112 
Q 3559 1806 3559 1356 
Q 3559 666 3084 287 
Q 2609 -91 1734 -91 
Q 1441 -91 1130 -33 
Q 819 25 488 141 
L 488 750 
Q 750 597 1062 519 
Q 1375 441 1716 441 
Q 2309 441 2620 675 
Q 2931 909 2931 1356 
Q 2931 1769 2642 2001 
Q 2353 2234 1838 2234 
L 1294 2234 
L 1294 2753 
L 1863 2753 
Q 2328 2753 2575 2939 
Q 2822 3125 2822 3475 
Q 2822 3834 2567 4026 
Q 2313 4219 1838 4219 
Q 1578 4219 1281 4162 
Q 984 4106 628 3988 
L 628 4550 
Q 988 4650 1302 4700 
Q 1616 4750 1894 4750 
Q 2613 4750 3031 4423 
Q 3450 4097 3450 3541 
Q 3450 3153 3228 2886 
Q 3006 2619 2597 2516 
z
" transform="scale(0.015625)"/>
       </defs>
       <use xlink:href="#DejaVuSans-33"/>
       <use xlink:href="#DejaVuSans-30" x="63.623047"/>
       <use xlink:href="#DejaVuSans-30" x="127.246094"/>
      </g>
     </g>
    </g>
   </g>
   <g id="matplotlib.axis_2">
    <g id="ytick_1">
     <g id="line2d_5">
      <defs>
       <path id="m97930c39d4" d="M 0 0 
L -3.5 0 
" style="stroke: #000000; stroke-width: 0.8"/>
      </defs>
      <g>
       <use xlink:href="#m97930c39d4" x="108" y="200.094545" style="stroke: #000000; stroke-width: 0.8"/>
      </g>
     </g>
     <g id="text_5">
      <!-- −0.4 -->
      <g transform="translate(76.717187 203.893764)scale(0.1 -0.1)">
       <defs>
        <path id="DejaVuSans-2212" d="M 678 2272 
L 4684 2272 
L 4684 1741 
L 678 1741 
L 678 2272 
z
" transform="scale(0.015625)"/>
        <path id="DejaVuSans-2e" d="M 684 794 
L 1344 794 
L 1344 0 
L 684 0 
L 684 794 
z
" transform="scale(0.015625)"/>
        <path id="DejaVuSans-34" d="M 2419 4116 
L 825 1625 
L 2419 1625 
L 2419 4116 
z
M 2253 4666 
L 3047 4666 
L 3047 1625 
L 3713 1625 
L 3713 1100 
L 3047 1100 
L 3047 0 
L 2419 0 
L 2419 1100 
L 313 1100 
L 313 1709 
L 2253 4666 
z
" transform="scale(0.015625)"/>
       </defs>
       <use xlink:href="#DejaVuSans-2212"/>
       <use xlink:href="#DejaVuSans-30" x="83.789062"/>
       <use xlink:href="#DejaVuSans-2e" x="147.412109"/>
       <use xlink:href="#DejaVuSans-34" x="179.199219"/>
      </g>
     </g>
    </g>
    <g id="ytick_2">
     <g id="line2d_6">
      <g>
       <use xlink:href="#m97930c39d4" x="108" y="173.139174" style="stroke: #000000; stroke-width: 0.8"/>
      </g>
     </g>
     <g id="text_6">
      <!-- −0.2 -->
      <g transform="translate(76.717187 176.938392)scale(0.1 -0.1)">
       <use xlink:href="#DejaVuSans-2212"/>
       <use xlink:href="#DejaVuSans-30" x="83.789062"/>
       <use xlink:href="#DejaVuSans-2e" x="147.412109"/>
       <use xlink:href="#DejaVuSans-32" x="179.199219"/>
      </g>
     </g>
    </g>
    <g id="ytick_3">
     <g id="line2d_7">
      <g>
       <use xlink:href="#m97930c39d4" x="108" y="146.183802" style="stroke: #000000; stroke-width: 0.8"/>
      </g>
     </g>
     <g id="text_7">
      <!-- 0.0 -->
      <g transform="translate(85.096875 149.98302)scale(0.1 -0.1)">
       <use xlink:href="#DejaVuSans-30"/>
       <use xlink:href="#DejaVuSans-2e" x="63.623047"/>
       <use xlink:href="#DejaVuSans-30" x="95.410156"/>
      </g>
     </g>
    </g>
    <g id="ytick_4">
     <g id="line2d_8">
      <g>
       <use xlink:href="#m97930c39d4" x="108" y="119.22843" style="stroke: #000000; stroke-width: 0.8"/>
      </g>
     </g>
     <g id="text_8">
      <!-- 0.2 -->
      <g transform="translate(85.096875 123.027649)scale(0.1 -0.1)">
       <use xlink:href="#DejaVuSans-30"/>
       <use xlink:href="#DejaVuSans-2e" x="63.623047"/>
       <use xlink:href="#DejaVuSans-32" x="95.410156"/>
      </g>
     </g>
    </g>
    <g id="ytick_5">
     <g id="line2d_9">
      <g>
       <use xlink:href="#m97930c39d4" x="108" y="92.273058" style="stroke: #000000; stroke-width: 0.8"/>
      </g>
     </g>
     <g id="text_9">
      <!-- 0.4 -->
      <g transform="translate(85.096875 96.072277)scale(0.1 -0.1)">
       <use xlink:href="#DejaVuSans-30"/>
       <use xlink:href="#DejaVuSans-2e" x="63.623047"/>
       <use xlink:href="#DejaVuSans-34" x="95.410156"/>
      </g>
     </g>
    </g>
    <g id="ytick_6">
     <g id="line2d_10">
      <g>
       <use xlink:href="#m97930c39d4" x="108" y="65.317686" style="stroke: #000000; stroke-width: 0.8"/>
      </g>
     </g>
     <g id="text_10">
      <!-- 0.6 -->
      <g transform="translate(85.096875 69.116905)scale(0.1 -0.1)">
       <defs>
        <path id="DejaVuSans-36" d="M 2113 2584 
Q 1688 2584 1439 2293 
Q 1191 2003 1191 1497 
Q 1191 994 1439 701 
Q 1688 409 2113 409 
Q 2538 409 2786 701 
Q 3034 994 3034 1497 
Q 3034 2003 2786 2293 
Q 2538 2584 2113 2584 
z
M 3366 4563 
L 3366 3988 
Q 3128 4100 2886 4159 
Q 2644 4219 2406 4219 
Q 1781 4219 1451 3797 
Q 1122 3375 1075 2522 
Q 1259 2794 1537 2939 
Q 1816 3084 2150 3084 
Q 2853 3084 3261 2657 
Q 3669 2231 3669 1497 
Q 3669 778 3244 343 
Q 2819 -91 2113 -91 
Q 1303 -91 875 529 
Q 447 1150 447 2328 
Q 447 3434 972 4092 
Q 1497 4750 2381 4750 
Q 2619 4750 2861 4703 
Q 3103 4656 3366 4563 
z
" transform="scale(0.015625)"/>
       </defs>
       <use xlink:href="#DejaVuSans-30"/>
       <use xlink:href="#DejaVuSans-2e" x="63.623047"/>
       <use xlink:href="#DejaVuSans-36" x="95.410156"/>
      </g>
     </g>
    </g>
   </g>
   <g id="line2d_11">
    <path d="M 116.951872 193.137105 
L 117.550659 177.329485 
L 118.149446 154.430161 
L 118.748234 136.433414 
L 119.347021 125.281585 
L 119.945809 118.445416 
L 120.544596 113.080251 
L 121.143383 110.225944 
L 121.742171 108.214325 
L 122.340958 108.166211 
L 122.939746 108.582929 
L 123.538533 109.329244 
L 124.13732 111.046561 
L 125.334895 113.509661 
L 127.730045 121.361953 
L 128.328832 122.062824 
L 128.92762 123.101162 
L 129.526407 123.770792 
L 130.125194 123.619974 
L 131.921557 121.739404 
L 132.520344 120.73463 
L 133.119132 119.991155 
L 133.717919 120.146442 
L 134.316706 119.050999 
L 134.915494 119.41594 
L 135.514281 119.02313 
L 136.113069 119.292126 
L 136.711856 119.343719 
L 137.310643 119.023516 
L 137.909431 118.904667 
L 139.107006 119.651389 
L 139.705793 119.629868 
L 140.30458 119.856093 
L 140.903368 120.489429 
L 141.502155 121.555886 
L 142.100943 121.466545 
L 142.69973 121.56394 
L 143.298517 121.776609 
L 143.897305 122.12842 
L 144.496092 122.642494 
L 145.09488 122.92608 
L 145.693667 122.713292 
L 146.292454 122.989639 
L 146.891242 123.568454 
L 147.490029 123.654942 
L 148.687604 122.632069 
L 149.286391 122.409705 
L 149.885179 121.928239 
L 151.082754 121.299986 
L 152.280328 120.737113 
L 152.879116 121.359987 
L 154.076691 120.520879 
L 154.675478 120.854002 
L 155.274265 120.428406 
L 155.873053 120.923703 
L 156.47184 120.858436 
L 157.070628 120.985886 
L 157.669415 121.999288 
L 158.268202 122.336804 
L 158.86699 122.941427 
L 159.465777 123.95569 
L 160.064565 123.975445 
L 160.663352 124.481116 
L 161.262139 124.375489 
L 161.860927 125.0029 
L 163.058502 125.161313 
L 163.657289 124.590301 
L 164.256076 124.341888 
L 164.854864 123.96035 
L 165.453651 122.941506 
L 166.052439 122.755775 
L 166.651226 121.800411 
L 167.250013 122.09964 
L 167.848801 121.73084 
L 168.447588 122.404469 
L 169.046376 121.740833 
L 170.24395 122.17239 
L 170.842738 121.671254 
L 171.441525 121.974094 
L 172.040313 122.518473 
L 172.6391 123.239035 
L 173.237887 122.905915 
L 173.836675 122.917107 
L 174.435462 122.81084 
L 175.03425 123.209272 
L 175.633037 124.547933 
L 176.231824 124.508038 
L 178.028187 125.574018 
L 178.626974 125.385891 
L 179.824549 125.697706 
L 180.423336 125.464349 
L 181.022124 125.369628 
L 181.620911 125.39751 
L 182.219698 124.617997 
L 182.818486 123.614763 
L 183.417273 123.275072 
L 184.016061 123.072233 
L 184.614848 122.5814 
L 185.213635 122.994911 
L 185.812423 122.990667 
L 186.41121 123.996083 
L 187.009998 123.399301 
L 187.608785 123.452957 
L 188.207572 124.149149 
L 188.80636 123.734042 
L 189.405147 123.818241 
L 190.003935 124.275921 
L 190.602722 124.888765 
L 191.201509 124.995523 
L 191.800297 126.095834 
L 192.399084 126.131585 
L 192.997872 126.662462 
L 194.195446 125.364881 
L 195.393021 125.414123 
L 195.991809 125.183071 
L 196.590596 125.331682 
L 197.189384 125.052906 
L 197.788171 125.882833 
L 198.386958 125.347391 
L 198.985746 125.485458 
L 199.584533 125.74713 
L 200.782108 125.176478 
L 201.380895 125.724171 
L 202.57847 125.993476 
L 203.177258 125.813803 
L 203.776045 126.17384 
L 204.374832 126.355059 
L 204.97362 126.252696 
L 205.572407 126.009264 
L 206.171195 126.243378 
L 206.769982 126.106765 
L 207.368769 126.880622 
L 208.566344 127.584121 
L 209.165132 127.727529 
L 209.763919 127.412964 
L 210.362706 127.539929 
L 210.961494 127.034951 
L 211.560281 127.231809 
L 212.159069 126.441529 
L 212.757856 126.889886 
L 213.356643 126.762621 
L 213.955431 127.025316 
L 214.554218 126.782596 
L 215.751793 127.679736 
L 216.35058 127.353408 
L 216.949368 128.144826 
L 218.74573 128.907177 
L 219.344517 128.993822 
L 219.943305 128.617739 
L 220.542092 128.575115 
L 221.14088 128.03308 
L 222.937242 127.522263 
L 223.536029 127.874244 
L 224.134817 128.633142 
L 224.733604 128.21125 
L 225.332391 128.629199 
L 225.931179 127.864245 
L 226.529966 128.024288 
L 227.128754 128.045648 
L 227.727541 127.556367 
L 228.326328 127.729607 
L 229.523903 127.458203 
L 230.122691 127.008288 
L 230.721478 127.26121 
L 231.320265 127.080857 
L 232.51784 128.450833 
L 233.116628 129.211227 
L 233.715415 129.073375 
L 234.314202 129.580901 
L 234.91299 129.168102 
L 235.511777 129.248707 
L 236.110565 129.130943 
L 236.709352 130.242613 
L 237.308139 129.574758 
L 237.906927 130.376266 
L 238.505714 129.453065 
L 239.104502 128.830508 
L 239.703289 128.863174 
L 240.302076 127.847583 
L 240.900864 128.263729 
L 242.098439 127.628165 
L 242.697226 127.579894 
L 243.894801 127.773334 
L 244.493588 128.398018 
L 245.092376 128.007812 
L 246.28995 129.233945 
L 246.888738 128.497769 
L 247.487525 129.361011 
L 248.086313 128.679869 
L 249.882675 129.249961 
L 250.481462 129.034857 
L 251.08025 129.120957 
L 251.679037 129.038942 
L 252.277824 129.402773 
L 252.876612 128.879045 
L 253.475399 128.680732 
L 254.074187 128.310785 
L 255.271761 128.164966 
L 255.870549 128.325893 
L 256.469336 128.277916 
L 257.068124 128.515766 
L 257.666911 128.376416 
L 258.265698 128.540546 
L 258.864486 129.155532 
L 260.062061 129.090483 
L 260.660848 129.46681 
L 261.259636 129.270049 
L 261.858423 129.334804 
L 262.45721 129.603897 
L 263.055998 129.292438 
L 263.654785 129.365908 
L 264.253573 128.748085 
L 264.85236 129.100511 
L 265.451147 129.656978 
L 266.049935 129.381047 
L 266.648722 130.036378 
L 267.24751 129.590808 
L 267.846297 130.492752 
L 268.445084 131.773334 
L 269.043872 132.172231 
L 269.642659 132.391711 
L 270.241447 133.025526 
L 270.840234 133.059288 
L 272.037809 132.566358 
L 272.636596 132.605426 
L 273.235384 131.704169 
L 273.834171 131.713538 
L 274.432958 131.940284 
L 275.031746 131.5514 
L 275.630533 131.74185 
L 276.229321 130.337768 
L 276.828108 130.455386 
L 277.426895 130.351155 
L 278.025683 130.360138 
L 278.62447 130.206286 
L 281.618407 132.26128 
L 282.815982 132.684426 
L 283.414769 131.876829 
L 284.612344 131.931972 
L 285.211132 132.283644 
L 285.809919 132.106396 
L 286.408706 132.67494 
L 287.007494 132.338031 
L 287.606281 131.294039 
L 288.205069 132.684057 
L 288.803856 132.437199 
L 289.402643 132.591892 
L 290.001431 131.559436 
L 290.600218 132.271278 
L 291.199006 132.749172 
L 291.797793 132.700142 
L 292.995368 132.87491 
L 294.79173 132.143005 
L 295.390517 132.47037 
L 295.989305 131.968538 
L 295.989305 131.968538 
" clip-path="url(#p52e25dd505)" style="fill: none; stroke: #1f77b4; stroke-width: 1.5; stroke-linecap: square"/>
   </g>
   <g id="patch_3">
    <path d="M 108 200.094545 
L 108 51.84 
" style="fill: none; stroke: #000000; stroke-width: 0.8; stroke-linejoin: miter; stroke-linecap: square"/>
   </g>
   <g id="patch_4">
    <path d="M 304.941176 200.094545 
L 304.941176 51.84 
" style="fill: none; stroke: #000000; stroke-width: 0.8; stroke-linejoin: miter; stroke-linecap: square"/>
   </g>
   <g id="patch_5">
    <path d="M 108 200.094545 
L 304.941176 200.094545 
" style="fill: none; stroke: #000000; stroke-width: 0.8; stroke-linejoin: miter; stroke-linecap: square"/>
   </g>
   <g id="patch_6">
    <path d="M 108 51.84 
L 304.941176 51.84 
" style="fill: none; stroke: #000000; stroke-width: 0.8; stroke-linejoin: miter; stroke-linecap: square"/>
   </g>
   <g id="legend_1">
    <g id="patch_7">
     <path d="M 254.578676 74.518125 
L 297.941176 74.518125 
Q 299.941176 74.518125 299.941176 72.518125 
L 299.941176 58.84 
Q 299.941176 56.84 297.941176 56.84 
L 254.578676 56.84 
Q 252.578676 56.84 252.578676 58.84 
L 252.578676 72.518125 
Q 252.578676 74.518125 254.578676 74.518125 
z
" style="fill: #ffffff; opacity: 0.8; stroke: #cccccc; stroke-linejoin: miter"/>
    </g>
    <g id="line2d_12">
     <path d="M 256.578676 64.938437 
L 266.578676 64.938437 
L 276.578676 64.938437 
" style="fill: none; stroke: #1f77b4; stroke-width: 1.5; stroke-linecap: square"/>
    </g>
    <g id="text_11">
     <!-- 0° -->
     <g transform="translate(284.578676 68.438437)scale(0.1 -0.1)">
      <defs>
       <path id="DejaVuSans-b0" d="M 1600 4347 
Q 1350 4347 1178 4173 
Q 1006 4000 1006 3750 
Q 1006 3503 1178 3333 
Q 1350 3163 1600 3163 
Q 1850 3163 2022 3333 
Q 2194 3503 2194 3750 
Q 2194 3997 2020 4172 
Q 1847 4347 1600 4347 
z
M 1600 4750 
Q 1800 4750 1984 4673 
Q 2169 4597 2303 4453 
Q 2447 4313 2519 4134 
Q 2591 3956 2591 3750 
Q 2591 3338 2302 3052 
Q 2013 2766 1594 2766 
Q 1172 2766 890 3047 
Q 609 3328 609 3750 
Q 609 4169 896 4459 
Q 1184 4750 1600 4750 
z
" transform="scale(0.015625)"/>
      </defs>
      <use xlink:href="#DejaVuSans-30"/>
      <use xlink:href="#DejaVuSans-b0" x="63.623047"/>
     </g>
    </g>
   </g>
  </g>
  <g id="axes_2">
   <g id="patch_8">
    <path d="M 344.329412 200.094545 
L 541.270588 200.094545 
L 541.270588 51.84 
L 344.329412 51.84 
z
" style="fill: #ffffff"/>
   </g>
   <g id="matplotlib.axis_3">
    <g id="xtick_5">
     <g id="line2d_13">
      <g>
       <use xlink:href="#m64089776c0" x="353.281283" y="200.094545" style="stroke: #000000; stroke-width: 0.8"/>
      </g>
     </g>
     <g id="text_12">
      <!-- 0 -->
      <g transform="translate(350.100033 214.692983)scale(0.1 -0.1)">
       <use xlink:href="#DejaVuSans-30"/>
      </g>
     </g>
    </g>
    <g id="xtick_6">
     <g id="line2d_14">
      <g>
       <use xlink:href="#m64089776c0" x="413.160024" y="200.094545" style="stroke: #000000; stroke-width: 0.8"/>
      </g>
     </g>
     <g id="text_13">
      <!-- 100 -->
      <g transform="translate(403.616274 214.692983)scale(0.1 -0.1)">
       <use xlink:href="#DejaVuSans-31"/>
       <use xlink:href="#DejaVuSans-30" x="63.623047"/>
       <use xlink:href="#DejaVuSans-30" x="127.246094"/>
      </g>
     </g>
    </g>
    <g id="xtick_7">
     <g id="line2d_15">
      <g>
       <use xlink:href="#m64089776c0" x="473.038764" y="200.094545" style="stroke: #000000; stroke-width: 0.8"/>
      </g>
     </g>
     <g id="text_14">
      <!-- 200 -->
      <g transform="translate(463.495014 214.692983)scale(0.1 -0.1)">
       <use xlink:href="#DejaVuSans-32"/>
       <use xlink:href="#DejaVuSans-30" x="63.623047"/>
       <use xlink:href="#DejaVuSans-30" x="127.246094"/>
      </g>
     </g>
    </g>
    <g id="xtick_8">
     <g id="line2d_16">
      <g>
       <use xlink:href="#m64089776c0" x="532.917504" y="200.094545" style="stroke: #000000; stroke-width: 0.8"/>
      </g>
     </g>
     <g id="text_15">
      <!-- 300 -->
      <g transform="translate(523.373754 214.692983)scale(0.1 -0.1)">
       <use xlink:href="#DejaVuSans-33"/>
       <use xlink:href="#DejaVuSans-30" x="63.623047"/>
       <use xlink:href="#DejaVuSans-30" x="127.246094"/>
      </g>
     </g>
    </g>
   </g>
   <g id="matplotlib.axis_4">
    <g id="ytick_7">
     <g id="line2d_17">
      <g>
       <use xlink:href="#m97930c39d4" x="344.329412" y="200.094545" style="stroke: #000000; stroke-width: 0.8"/>
      </g>
     </g>
     <g id="text_16">
      <!-- −0.4 -->
      <g transform="translate(313.046599 203.893764)scale(0.1 -0.1)">
       <use xlink:href="#DejaVuSans-2212"/>
       <use xlink:href="#DejaVuSans-30" x="83.789062"/>
       <use xlink:href="#DejaVuSans-2e" x="147.412109"/>
       <use xlink:href="#DejaVuSans-34" x="179.199219"/>
      </g>
     </g>
    </g>
    <g id="ytick_8">
     <g id="line2d_18">
      <g>
       <use xlink:href="#m97930c39d4" x="344.329412" y="173.139174" style="stroke: #000000; stroke-width: 0.8"/>
      </g>
     </g>
     <g id="text_17">
      <!-- −0.2 -->
      <g transform="translate(313.046599 176.938392)scale(0.1 -0.1)">
       <use xlink:href="#DejaVuSans-2212"/>
       <use xlink:href="#DejaVuSans-30" x="83.789062"/>
       <use xlink:href="#DejaVuSans-2e" x="147.412109"/>
       <use xlink:href="#DejaVuSans-32" x="179.199219"/>
      </g>
     </g>
    </g>
    <g id="ytick_9">
     <g id="line2d_19">
      <g>
       <use xlink:href="#m97930c39d4" x="344.329412" y="146.183802" style="stroke: #000000; stroke-width: 0.8"/>
      </g>
     </g>
     <g id="text_18">
      <!-- 0.0 -->
      <g transform="translate(321.426287 149.98302)scale(0.1 -0.1)">
       <use xlink:href="#DejaVuSans-30"/>
       <use xlink:href="#DejaVuSans-2e" x="63.623047"/>
       <use xlink:href="#DejaVuSans-30" x="95.410156"/>
      </g>
     </g>
    </g>
    <g id="ytick_10">
     <g id="line2d_20">
      <g>
       <use xlink:href="#m97930c39d4" x="344.329412" y="119.22843" style="stroke: #000000; stroke-width: 0.8"/>
      </g>
     </g>
     <g id="text_19">
      <!-- 0.2 -->
      <g transform="translate(321.426287 123.027649)scale(0.1 -0.1)">
       <use xlink:href="#DejaVuSans-30"/>
       <use xlink:href="#DejaVuSans-2e" x="63.623047"/>
       <use xlink:href="#DejaVuSans-32" x="95.410156"/>
      </g>
     </g>
    </g>
    <g id="ytick_11">
     <g id="line2d_21">
      <g>
       <use xlink:href="#m97930c39d4" x="344.329412" y="92.273058" style="stroke: #000000; stroke-width: 0.8"/>
      </g>
     </g>
     <g id="text_20">
      <!-- 0.4 -->
      <g transform="translate(321.426287 96.072277)scale(0.1 -0.1)">
       <use xlink:href="#DejaVuSans-30"/>
       <use xlink:href="#DejaVuSans-2e" x="63.623047"/>
       <use xlink:href="#DejaVuSans-34" x="95.410156"/>
      </g>
     </g>
    </g>
    <g id="ytick_12">
     <g id="line2d_22">
      <g>
       <use xlink:href="#m97930c39d4" x="344.329412" y="65.317686" style="stroke: #000000; stroke-width: 0.8"/>
      </g>
     </g>
     <g id="text_21">
      <!-- 0.6 -->
      <g transform="translate(321.426287 69.116905)scale(0.1 -0.1)">
       <use xlink:href="#DejaVuSans-30"/>
       <use xlink:href="#DejaVuSans-2e" x="63.623047"/>
       <use xlink:href="#DejaVuSans-36" x="95.410156"/>
      </g>
     </g>
    </g>
   </g>
   <g id="line2d_23">
    <path d="M 353.281283 169.724959 
L 353.880071 174.825909 
L 355.676433 154.011884 
L 356.874008 147.803698 
L 357.472795 146.679512 
L 358.071583 144.629921 
L 358.67037 144.262664 
L 359.269157 144.811531 
L 359.867945 144.600425 
L 360.466732 145.872342 
L 361.06552 145.649839 
L 361.664307 146.318697 
L 362.861882 148.489322 
L 363.460669 148.56407 
L 364.059457 149.010278 
L 364.658244 149.025235 
L 365.257031 148.475812 
L 365.855819 148.63022 
L 366.454606 149.316795 
L 367.053394 149.17278 
L 367.652181 147.84786 
L 368.250968 147.332738 
L 368.849756 147.234167 
L 369.448543 148.028571 
L 370.047331 146.816126 
L 370.646118 146.852358 
L 371.244905 146.757552 
L 371.843693 146.961471 
L 372.44248 146.811259 
L 373.041268 147.469737 
L 373.640055 147.595056 
L 374.238842 147.376803 
L 374.83763 147.387167 
L 375.436417 146.889778 
L 376.035205 147.208663 
L 376.633992 147.380217 
L 377.232779 147.169311 
L 377.831567 147.251854 
L 378.430354 146.779302 
L 379.029142 145.464471 
L 379.627929 144.994548 
L 380.226717 144.351467 
L 380.825504 144.231101 
L 382.621866 144.261529 
L 383.220654 144.674773 
L 383.819441 144.767892 
L 384.418228 145.581678 
L 385.017016 145.197919 
L 385.615803 145.564954 
L 386.214591 144.532726 
L 386.813378 145.359028 
L 387.412165 145.739233 
L 388.010953 145.354577 
L 388.60974 145.104404 
L 389.208528 144.538236 
L 389.807315 144.887961 
L 390.406102 143.943581 
L 391.00489 144.780504 
L 391.603677 143.301889 
L 392.202465 144.026181 
L 392.801252 144.39796 
L 393.400039 144.386101 
L 393.998827 144.093777 
L 395.196402 145.143329 
L 396.992764 146.087581 
L 397.591551 145.762671 
L 398.190339 145.939116 
L 398.789126 145.595205 
L 399.387913 145.411616 
L 399.986701 146.547374 
L 400.585488 145.758327 
L 401.184276 144.41894 
L 401.783063 145.480604 
L 402.38185 143.727072 
L 403.579425 143.980901 
L 404.178213 143.113096 
L 405.375787 144.529881 
L 405.974575 144.159102 
L 406.573362 144.19837 
L 407.17215 144.671317 
L 407.770937 144.062195 
L 408.369724 143.966345 
L 409.567299 144.800287 
L 410.166087 144.346262 
L 410.764874 144.452233 
L 411.363661 145.391734 
L 411.962449 144.28726 
L 412.561236 144.725866 
L 413.160024 144.051612 
L 413.758811 145.138719 
L 414.357598 145.633181 
L 414.956386 145.743706 
L 415.555173 144.960698 
L 416.153961 145.660887 
L 416.752748 145.849647 
L 417.351535 144.488098 
L 417.950323 144.393257 
L 418.54911 144.098219 
L 419.147898 143.521207 
L 420.345472 143.299398 
L 420.94426 143.485724 
L 422.141835 142.677658 
L 422.740622 143.140702 
L 423.938197 142.171756 
L 424.536984 141.465066 
L 425.135772 141.724643 
L 426.333346 143.853711 
L 426.932134 143.866069 
L 428.129709 143.693006 
L 429.327283 145.86218 
L 429.926071 145.066947 
L 430.524858 144.871122 
L 431.123646 144.455979 
L 431.722433 144.638308 
L 432.32122 144.307115 
L 432.920008 145.212766 
L 433.518795 145.790697 
L 434.117583 144.685216 
L 434.71637 145.270545 
L 435.315157 145.149567 
L 435.913945 145.292401 
L 436.512732 144.150787 
L 437.11152 144.075207 
L 437.710307 144.351463 
L 438.309094 143.795042 
L 438.907882 142.488772 
L 439.506669 142.615941 
L 440.105457 142.584546 
L 441.303031 143.31708 
L 442.500606 143.920084 
L 443.099394 144.050522 
L 444.296969 143.039091 
L 444.895756 141.295973 
L 445.494543 137.66737 
L 446.093331 134.970709 
L 446.692118 133.172301 
L 447.290906 128.756189 
L 447.889693 126.499791 
L 448.48848 125.017735 
L 449.087268 125.234749 
L 449.686055 125.804875 
L 450.284843 125.488292 
L 453.877567 136.469087 
L 454.476354 136.884514 
L 455.075142 138.167399 
L 455.673929 139.012728 
L 456.272717 140.108664 
L 456.871504 140.046971 
L 457.470291 139.870834 
L 458.069079 140.697106 
L 458.667866 140.318758 
L 459.266654 140.152332 
L 459.865441 139.189385 
L 460.464228 139.595051 
L 461.063016 139.258775 
L 461.661803 139.438099 
L 462.859378 139.615382 
L 463.458165 139.365056 
L 464.056953 140.056246 
L 464.65574 140.171247 
L 465.254528 140.859681 
L 465.853315 141.308185 
L 466.452102 141.932145 
L 467.05089 141.96366 
L 467.649677 142.617035 
L 468.248465 142.192661 
L 468.847252 141.414284 
L 470.044827 141.189587 
L 470.643614 140.822623 
L 471.242402 141.22977 
L 471.841189 140.628619 
L 472.439976 141.802491 
L 473.038764 141.64166 
L 474.236339 142.286813 
L 474.835126 142.179267 
L 475.433913 142.346097 
L 476.631488 143.851249 
L 477.230276 143.850767 
L 477.829063 145.081065 
L 478.42785 143.631698 
L 480.224213 143.828834 
L 480.823 144.67664 
L 481.421787 143.774494 
L 482.020575 143.801801 
L 482.619362 144.102404 
L 483.21815 143.631295 
L 484.415724 144.461503 
L 485.014512 144.526615 
L 485.613299 145.218352 
L 486.212087 144.999126 
L 486.810874 145.214045 
L 487.409661 144.441446 
L 488.008449 145.039564 
L 488.607236 144.270794 
L 489.206024 143.776181 
L 489.804811 142.864428 
L 490.403598 143.37681 
L 491.002386 142.758687 
L 491.601173 143.344568 
L 492.199961 143.353207 
L 492.798748 143.496839 
L 493.397535 142.681374 
L 493.996323 142.925913 
L 495.193898 144.248245 
L 495.792685 144.595913 
L 496.391472 145.248126 
L 496.99026 145.632014 
L 498.187835 145.796646 
L 498.786622 145.457978 
L 499.385409 145.770813 
L 499.984197 145.01606 
L 500.582984 145.523232 
L 501.181772 145.368415 
L 501.780559 145.661338 
L 502.379346 145.260729 
L 502.978134 145.978408 
L 504.175709 144.67471 
L 504.774496 144.604402 
L 505.373283 143.831822 
L 505.972071 143.908284 
L 506.570858 143.257533 
L 507.169646 143.70932 
L 507.768433 144.395343 
L 508.367221 144.541368 
L 508.966008 144.412371 
L 509.564795 144.46876 
L 510.163583 145.234141 
L 510.76237 145.218051 
L 511.361158 145.594666 
L 511.959945 146.471598 
L 512.558732 146.2283 
L 513.15752 146.533666 
L 513.756307 145.736275 
L 514.355095 146.121511 
L 514.953882 146.062567 
L 515.552669 144.548187 
L 516.750244 146.034741 
L 517.349032 145.454365 
L 517.947819 146.975707 
L 518.546606 146.709627 
L 519.145394 146.632936 
L 519.744181 146.673072 
L 520.342969 144.985304 
L 520.941756 144.875221 
L 521.540543 144.014162 
L 522.139331 145.067571 
L 522.738118 144.003992 
L 523.336906 145.037412 
L 523.935693 145.780638 
L 524.53448 145.968985 
L 525.133268 145.940664 
L 525.732055 146.415136 
L 526.330843 146.002128 
L 526.92963 146.994486 
L 527.528417 146.280647 
L 528.725992 146.802419 
L 529.32478 146.773585 
L 529.923567 147.357339 
L 530.522354 145.955891 
L 531.121142 146.210677 
L 531.719929 146.235716 
L 532.318717 146.558223 
L 532.318717 146.558223 
" clip-path="url(#pc5c712bd0f)" style="fill: none; stroke: #1f77b4; stroke-width: 1.5; stroke-linecap: square"/>
   </g>
   <g id="patch_9">
    <path d="M 344.329412 200.094545 
L 344.329412 51.84 
" style="fill: none; stroke: #000000; stroke-width: 0.8; stroke-linejoin: miter; stroke-linecap: square"/>
   </g>
   <g id="patch_10">
    <path d="M 541.270588 200.094545 
L 541.270588 51.84 
" style="fill: none; stroke: #000000; stroke-width: 0.8; stroke-linejoin: miter; stroke-linecap: square"/>
   </g>
   <g id="patch_11">
    <path d="M 344.329412 200.094545 
L 541.270588 200.094545 
" style="fill: none; stroke: #000000; stroke-width: 0.8; stroke-linejoin: miter; stroke-linecap: square"/>
   </g>
   <g id="patch_12">
    <path d="M 344.329412 51.84 
L 541.270588 51.84 
" style="fill: none; stroke: #000000; stroke-width: 0.8; stroke-linejoin: miter; stroke-linecap: square"/>
   </g>
   <g id="legend_2">
    <g id="patch_13">
     <path d="M 484.545588 74.518125 
L 534.270588 74.518125 
Q 536.270588 74.518125 536.270588 72.518125 
L 536.270588 58.84 
Q 536.270588 56.84 534.270588 56.84 
L 484.545588 56.84 
Q 482.545588 56.84 482.545588 58.84 
L 482.545588 72.518125 
Q 482.545588 74.518125 484.545588 74.518125 
z
" style="fill: #ffffff; opacity: 0.8; stroke: #cccccc; stroke-linejoin: miter"/>
    </g>
    <g id="line2d_24">
     <path d="M 486.545588 64.938437 
L 496.545588 64.938437 
L 506.545588 64.938437 
" style="fill: none; stroke: #1f77b4; stroke-width: 1.5; stroke-linecap: square"/>
    </g>
    <g id="text_22">
     <!-- 18° -->
     <g transform="translate(514.545588 68.438437)scale(0.1 -0.1)">
      <defs>
       <path id="DejaVuSans-38" d="M 2034 2216 
Q 1584 2216 1326 1975 
Q 1069 1734 1069 1313 
Q 1069 891 1326 650 
Q 1584 409 2034 409 
Q 2484 409 2743 651 
Q 3003 894 3003 1313 
Q 3003 1734 2745 1975 
Q 2488 2216 2034 2216 
z
M 1403 2484 
Q 997 2584 770 2862 
Q 544 3141 544 3541 
Q 544 4100 942 4425 
Q 1341 4750 2034 4750 
Q 2731 4750 3128 4425 
Q 3525 4100 3525 3541 
Q 3525 3141 3298 2862 
Q 3072 2584 2669 2484 
Q 3125 2378 3379 2068 
Q 3634 1759 3634 1313 
Q 3634 634 3220 271 
Q 2806 -91 2034 -91 
Q 1263 -91 848 271 
Q 434 634 434 1313 
Q 434 1759 690 2068 
Q 947 2378 1403 2484 
z
M 1172 3481 
Q 1172 3119 1398 2916 
Q 1625 2713 2034 2713 
Q 2441 2713 2670 2916 
Q 2900 3119 2900 3481 
Q 2900 3844 2670 4047 
Q 2441 4250 2034 4250 
Q 1625 4250 1398 4047 
Q 1172 3844 1172 3481 
z
" transform="scale(0.015625)"/>
      </defs>
      <use xlink:href="#DejaVuSans-31"/>
      <use xlink:href="#DejaVuSans-38" x="63.623047"/>
      <use xlink:href="#DejaVuSans-b0" x="127.246094"/>
     </g>
    </g>
   </g>
  </g>
  <g id="axes_3">
   <g id="patch_14">
    <path d="M 580.658824 200.094545 
L 777.6 200.094545 
L 777.6 51.84 
L 580.658824 51.84 
z
" style="fill: #ffffff"/>
   </g>
   <g id="matplotlib.axis_5">
    <g id="xtick_9">
     <g id="line2d_25">
      <g>
       <use xlink:href="#m64089776c0" x="589.610695" y="200.094545" style="stroke: #000000; stroke-width: 0.8"/>
      </g>
     </g>
     <g id="text_23">
      <!-- 0 -->
      <g transform="translate(586.429445 214.692983)scale(0.1 -0.1)">
       <use xlink:href="#DejaVuSans-30"/>
      </g>
     </g>
    </g>
    <g id="xtick_10">
     <g id="line2d_26">
      <g>
       <use xlink:href="#m64089776c0" x="649.489435" y="200.094545" style="stroke: #000000; stroke-width: 0.8"/>
      </g>
     </g>
     <g id="text_24">
      <!-- 100 -->
      <g transform="translate(639.945685 214.692983)scale(0.1 -0.1)">
       <use xlink:href="#DejaVuSans-31"/>
       <use xlink:href="#DejaVuSans-30" x="63.623047"/>
       <use xlink:href="#DejaVuSans-30" x="127.246094"/>
      </g>
     </g>
    </g>
    <g id="xtick_11">
     <g id="line2d_27">
      <g>
       <use xlink:href="#m64089776c0" x="709.368176" y="200.094545" style="stroke: #000000; stroke-width: 0.8"/>
      </g>
     </g>
     <g id="text_25">
      <!-- 200 -->
      <g transform="translate(699.824426 214.692983)scale(0.1 -0.1)">
       <use xlink:href="#DejaVuSans-32"/>
       <use xlink:href="#DejaVuSans-30" x="63.623047"/>
       <use xlink:href="#DejaVuSans-30" x="127.246094"/>
      </g>
     </g>
    </g>
    <g id="xtick_12">
     <g id="line2d_28">
      <g>
       <use xlink:href="#m64089776c0" x="769.246916" y="200.094545" style="stroke: #000000; stroke-width: 0.8"/>
      </g>
     </g>
     <g id="text_26">
      <!-- 300 -->
      <g transform="translate(759.703166 214.692983)scale(0.1 -0.1)">
       <use xlink:href="#DejaVuSans-33"/>
       <use xlink:href="#DejaVuSans-30" x="63.623047"/>
       <use xlink:href="#DejaVuSans-30" x="127.246094"/>
      </g>
     </g>
    </g>
   </g>
   <g id="matplotlib.axis_6">
    <g id="ytick_13">
     <g id="line2d_29">
      <g>
       <use xlink:href="#m97930c39d4" x="580.658824" y="200.094545" style="stroke: #000000; stroke-width: 0.8"/>
      </g>
     </g>
     <g id="text_27">
      <!-- −0.4 -->
      <g transform="translate(549.376011 203.893764)scale(0.1 -0.1)">
       <use xlink:href="#DejaVuSans-2212"/>
       <use xlink:href="#DejaVuSans-30" x="83.789062"/>
       <use xlink:href="#DejaVuSans-2e" x="147.412109"/>
       <use xlink:href="#DejaVuSans-34" x="179.199219"/>
      </g>
     </g>
    </g>
    <g id="ytick_14">
     <g id="line2d_30">
      <g>
       <use xlink:href="#m97930c39d4" x="580.658824" y="173.139174" style="stroke: #000000; stroke-width: 0.8"/>
      </g>
     </g>
     <g id="text_28">
      <!-- −0.2 -->
      <g transform="translate(549.376011 176.938392)scale(0.1 -0.1)">
       <use xlink:href="#DejaVuSans-2212"/>
       <use xlink:href="#DejaVuSans-30" x="83.789062"/>
       <use xlink:href="#DejaVuSans-2e" x="147.412109"/>
       <use xlink:href="#DejaVuSans-32" x="179.199219"/>
      </g>
     </g>
    </g>
    <g id="ytick_15">
     <g id="line2d_31">
      <g>
       <use xlink:href="#m97930c39d4" x="580.658824" y="146.183802" style="stroke: #000000; stroke-width: 0.8"/>
      </g>
     </g>
     <g id="text_29">
      <!-- 0.0 -->
      <g transform="translate(557.755699 149.98302)scale(0.1 -0.1)">
       <use xlink:href="#DejaVuSans-30"/>
       <use xlink:href="#DejaVuSans-2e" x="63.623047"/>
       <use xlink:href="#DejaVuSans-30" x="95.410156"/>
      </g>
     </g>
    </g>
    <g id="ytick_16">
     <g id="line2d_32">
      <g>
       <use xlink:href="#m97930c39d4" x="580.658824" y="119.22843" style="stroke: #000000; stroke-width: 0.8"/>
      </g>
     </g>
     <g id="text_30">
      <!-- 0.2 -->
      <g transform="translate(557.755699 123.027649)scale(0.1 -0.1)">
       <use xlink:href="#DejaVuSans-30"/>
       <use xlink:href="#DejaVuSans-2e" x="63.623047"/>
       <use xlink:href="#DejaVuSans-32" x="95.410156"/>
      </g>
     </g>
    </g>
    <g id="ytick_17">
     <g id="line2d_33">
      <g>
       <use xlink:href="#m97930c39d4" x="580.658824" y="92.273058" style="stroke: #000000; stroke-width: 0.8"/>
      </g>
     </g>
     <g id="text_31">
      <!-- 0.4 -->
      <g transform="translate(557.755699 96.072277)scale(0.1 -0.1)">
       <use xlink:href="#DejaVuSans-30"/>
       <use xlink:href="#DejaVuSans-2e" x="63.623047"/>
       <use xlink:href="#DejaVuSans-34" x="95.410156"/>
      </g>
     </g>
    </g>
    <g id="ytick_18">
     <g id="line2d_34">
      <g>
       <use xlink:href="#m97930c39d4" x="580.658824" y="65.317686" style="stroke: #000000; stroke-width: 0.8"/>
      </g>
     </g>
     <g id="text_32">
      <!-- 0.6 -->
      <g transform="translate(557.755699 69.116905)scale(0.1 -0.1)">
       <use xlink:href="#DejaVuSans-30"/>
       <use xlink:href="#DejaVuSans-2e" x="63.623047"/>
       <use xlink:href="#DejaVuSans-36" x="95.410156"/>
      </g>
     </g>
    </g>
   </g>
   <g id="line2d_35">
    <path d="M 589.610695 175.803526 
L 590.209483 176.640963 
L 591.407057 153.188273 
L 592.005845 147.137803 
L 592.604632 142.576603 
L 593.802207 137.971223 
L 594.400994 137.631539 
L 594.999782 138.013382 
L 596.197357 138.210562 
L 596.796144 139.103323 
L 597.394931 141.05992 
L 597.993719 142.229703 
L 599.191294 142.867865 
L 600.388868 145.231824 
L 600.987656 144.997949 
L 601.586443 144.441861 
L 602.185231 145.211899 
L 604.58038 141.591205 
L 605.179168 142.148889 
L 605.777955 142.067424 
L 606.376742 141.706237 
L 606.97553 142.040529 
L 607.574317 141.649958 
L 608.173105 140.966469 
L 608.771892 141.564033 
L 609.370679 141.301037 
L 609.969467 141.544161 
L 610.568254 141.98656 
L 611.167042 140.968357 
L 611.765829 141.213989 
L 612.364616 141.019725 
L 612.963404 142.189759 
L 613.562191 142.182562 
L 614.160979 142.028229 
L 614.759766 142.459803 
L 615.358553 142.45014 
L 615.957341 142.787271 
L 616.556128 142.847796 
L 617.154916 143.020211 
L 617.753703 143.579946 
L 618.35249 143.327332 
L 618.951278 142.536203 
L 619.550065 142.043505 
L 620.148853 142.138765 
L 620.74764 141.234102 
L 621.346427 141.310967 
L 621.945215 141.777717 
L 622.544002 140.938007 
L 623.14279 139.855188 
L 624.340364 140.505019 
L 624.939152 141.163655 
L 625.537939 141.175764 
L 626.136727 141.340824 
L 626.735514 142.287409 
L 627.334302 141.531702 
L 628.531876 142.631297 
L 629.729451 143.058652 
L 630.328239 142.397052 
L 630.927026 142.09327 
L 631.525813 141.470524 
L 632.124601 141.329753 
L 632.723388 140.837313 
L 633.322176 140.723836 
L 633.920963 139.742143 
L 634.51975 140.628173 
L 635.118538 140.930424 
L 635.717325 141.652874 
L 636.316113 141.010302 
L 637.513687 141.716458 
L 638.112475 141.279707 
L 638.711262 141.428843 
L 639.31005 141.13279 
L 639.908837 141.903166 
L 640.507624 141.275887 
L 641.106412 141.574355 
L 641.705199 142.201317 
L 642.303987 141.90339 
L 642.902774 141.820532 
L 643.501561 140.99568 
L 644.100349 141.663953 
L 644.699136 141.648276 
L 645.297924 140.925977 
L 645.896711 141.062097 
L 646.495498 140.844258 
L 647.094286 141.000963 
L 647.693073 140.614528 
L 648.291861 140.695046 
L 648.890648 141.500913 
L 649.489435 141.738161 
L 650.088223 140.772121 
L 650.68701 141.855977 
L 651.285798 141.063655 
L 651.884585 141.619874 
L 652.483372 142.604734 
L 653.08216 142.906595 
L 653.680947 143.04536 
L 654.878522 141.379582 
L 655.477309 141.803447 
L 656.076097 141.365861 
L 656.674884 141.168831 
L 657.872459 140.522594 
L 658.471246 142.073576 
L 659.070034 142.825769 
L 660.267609 142.499556 
L 660.866396 142.431112 
L 661.465183 142.000519 
L 662.063971 141.966961 
L 662.662758 142.943807 
L 663.261546 142.142742 
L 663.860333 141.916503 
L 664.45912 141.376441 
L 665.057908 141.718677 
L 665.656695 141.67608 
L 666.255483 141.520239 
L 666.85427 140.748734 
L 667.453057 141.635268 
L 668.051845 141.239562 
L 669.24942 142.460601 
L 669.848207 142.662356 
L 670.446994 143.151258 
L 671.045782 143.318263 
L 671.644569 143.183367 
L 672.243357 142.425925 
L 673.440931 142.921717 
L 674.039719 143.488752 
L 674.638506 143.460647 
L 675.237294 144.608309 
L 676.434868 145.991002 
L 677.033656 145.578981 
L 677.632443 146.289424 
L 678.231231 145.600091 
L 678.830018 144.422577 
L 679.428805 142.981966 
L 680.62638 138.179674 
L 681.823955 132.197906 
L 683.620317 109.004016 
L 684.817892 97.114257 
L 685.416679 93.968425 
L 686.015467 93.286747 
L 686.614254 93.943835 
L 687.213042 96.674933 
L 687.811829 101.572177 
L 688.410616 104.967958 
L 689.009404 112.840669 
L 689.608191 117.993503 
L 690.206979 124.564375 
L 692.003341 133.739653 
L 692.602128 136.266945 
L 693.200916 137.58562 
L 694.398491 137.694823 
L 694.997278 136.785976 
L 695.596065 135.472245 
L 696.194853 134.637513 
L 696.79364 133.003778 
L 697.392428 132.765237 
L 697.991215 132.281515 
L 698.590002 132.259534 
L 699.18879 132.63362 
L 699.787577 132.239417 
L 700.386365 132.96826 
L 700.985152 133.2091 
L 701.583939 134.929375 
L 702.182727 135.871284 
L 702.781514 136.371693 
L 703.380302 137.354123 
L 703.979089 137.269403 
L 704.577876 138.478657 
L 705.176664 138.61149 
L 706.374239 139.349358 
L 706.973026 140.620975 
L 708.170601 140.633095 
L 708.769388 141.157149 
L 709.368176 140.245274 
L 709.966963 140.85516 
L 710.56575 140.300719 
L 711.164538 140.363902 
L 711.763325 140.006256 
L 712.9609 140.186096 
L 713.559687 139.423035 
L 714.158475 139.436989 
L 714.757262 138.462212 
L 715.35605 138.913789 
L 715.954837 139.000442 
L 716.553624 138.888009 
L 717.751199 141.004659 
L 718.349987 141.107654 
L 718.948774 140.839764 
L 720.146349 142.636059 
L 720.745136 142.372169 
L 721.343924 143.12831 
L 721.942711 144.310011 
L 722.541498 143.810017 
L 723.140286 143.912535 
L 723.739073 143.352506 
L 724.337861 141.771579 
L 724.936648 141.998949 
L 725.535435 141.271091 
L 726.134223 140.820785 
L 726.73301 140.775301 
L 727.331798 141.759935 
L 727.930585 143.06927 
L 728.529372 142.421229 
L 729.726947 142.128739 
L 730.325735 142.37291 
L 730.924522 142.356116 
L 732.122097 144.008511 
L 732.720884 144.715129 
L 733.319672 144.74559 
L 733.918459 143.647377 
L 734.517246 143.565149 
L 735.116034 143.316535 
L 735.714821 143.819116 
L 736.912396 143.26772 
L 737.511183 142.562909 
L 738.109971 142.847596 
L 738.708758 142.94188 
L 739.307546 142.474146 
L 739.906333 143.342013 
L 740.50512 143.364963 
L 741.103908 144.132753 
L 741.702695 143.331353 
L 742.301483 143.406505 
L 742.90027 144.23422 
L 743.499057 143.743382 
L 744.097845 143.580329 
L 744.696632 143.255622 
L 745.894207 143.749581 
L 746.492994 144.281419 
L 747.091782 144.281729 
L 747.690569 144.119694 
L 748.289357 145.028721 
L 748.888144 145.166134 
L 749.486931 145.53351 
L 750.085719 145.288129 
L 750.684506 145.461869 
L 751.283294 145.400564 
L 751.882081 145.990154 
L 752.480868 144.653028 
L 753.079656 143.918093 
L 753.678443 143.892801 
L 754.277231 143.530222 
L 754.876018 144.324897 
L 755.474806 143.932124 
L 756.073593 144.506107 
L 756.67238 143.767447 
L 757.271168 143.539467 
L 757.869955 143.834645 
L 758.468743 143.937583 
L 759.06753 144.16979 
L 759.666317 144.703989 
L 760.265105 144.979078 
L 760.863892 144.727104 
L 761.46268 144.751881 
L 762.061467 144.16608 
L 762.660254 144.193029 
L 763.259042 144.506982 
L 763.857829 143.963498 
L 765.055404 144.448882 
L 765.654191 144.033369 
L 766.252979 143.808637 
L 766.851766 144.933947 
L 767.450554 143.863217 
L 768.648128 142.504599 
L 768.648128 142.504599 
" clip-path="url(#p0528d1b9e0)" style="fill: none; stroke: #1f77b4; stroke-width: 1.5; stroke-linecap: square"/>
   </g>
   <g id="patch_15">
    <path d="M 580.658824 200.094545 
L 580.658824 51.84 
" style="fill: none; stroke: #000000; stroke-width: 0.8; stroke-linejoin: miter; stroke-linecap: square"/>
   </g>
   <g id="patch_16">
    <path d="M 777.6 200.094545 
L 777.6 51.84 
" style="fill: none; stroke: #000000; stroke-width: 0.8; stroke-linejoin: miter; stroke-linecap: square"/>
   </g>
   <g id="patch_17">
    <path d="M 580.658824 200.094545 
L 777.6 200.094545 
" style="fill: none; stroke: #000000; stroke-width: 0.8; stroke-linejoin: miter; stroke-linecap: square"/>
   </g>
   <g id="patch_18">
    <path d="M 580.658824 51.84 
L 777.6 51.84 
" style="fill: none; stroke: #000000; stroke-width: 0.8; stroke-linejoin: miter; stroke-linecap: square"/>
   </g>
   <g id="legend_3">
    <g id="patch_19">
     <path d="M 720.875 74.518125 
L 770.6 74.518125 
Q 772.6 74.518125 772.6 72.518125 
L 772.6 58.84 
Q 772.6 56.84 770.6 56.84 
L 720.875 56.84 
Q 718.875 56.84 718.875 58.84 
L 718.875 72.518125 
Q 718.875 74.518125 720.875 74.518125 
z
" style="fill: #ffffff; opacity: 0.8; stroke: #cccccc; stroke-linejoin: miter"/>
    </g>
    <g id="line2d_36">
     <path d="M 722.875 64.938437 
L 732.875 64.938437 
L 742.875 64.938437 
" style="fill: none; stroke: #1f77b4; stroke-width: 1.5; stroke-linecap: square"/>
    </g>
    <g id="text_33">
     <!-- 36° -->
     <g transform="translate(750.875 68.438437)scale(0.1 -0.1)">
      <use xlink:href="#DejaVuSans-33"/>
      <use xlink:href="#DejaVuSans-36" x="63.623047"/>
      <use xlink:href="#DejaVuSans-b0" x="127.246094"/>
     </g>
    </g>
   </g>
  </g>
  <g id="axes_4">
   <g id="patch_20">
    <path d="M 108 378 
L 304.941176 378 
L 304.941176 229.745455 
L 108 229.745455 
z
" style="fill: #ffffff"/>
   </g>
   <g id="matplotlib.axis_7">
    <g id="xtick_13">
     <g id="line2d_37">
      <g>
       <use xlink:href="#m64089776c0" x="116.951872" y="378" style="stroke: #000000; stroke-width: 0.8"/>
      </g>
     </g>
     <g id="text_34">
      <!-- 0 -->
      <g transform="translate(113.770622 392.598437)scale(0.1 -0.1)">
       <use xlink:href="#DejaVuSans-30"/>
      </g>
     </g>
    </g>
    <g id="xtick_14">
     <g id="line2d_38">
      <g>
       <use xlink:href="#m64089776c0" x="176.830612" y="378" style="stroke: #000000; stroke-width: 0.8"/>
      </g>
     </g>
     <g id="text_35">
      <!-- 100 -->
      <g transform="translate(167.286862 392.598437)scale(0.1 -0.1)">
       <use xlink:href="#DejaVuSans-31"/>
       <use xlink:href="#DejaVuSans-30" x="63.623047"/>
       <use xlink:href="#DejaVuSans-30" x="127.246094"/>
      </g>
     </g>
    </g>
    <g id="xtick_15">
     <g id="line2d_39">
      <g>
       <use xlink:href="#m64089776c0" x="236.709352" y="378" style="stroke: #000000; stroke-width: 0.8"/>
      </g>
     </g>
     <g id="text_36">
      <!-- 200 -->
      <g transform="translate(227.165602 392.598437)scale(0.1 -0.1)">
       <use xlink:href="#DejaVuSans-32"/>
       <use xlink:href="#DejaVuSans-30" x="63.623047"/>
       <use xlink:href="#DejaVuSans-30" x="127.246094"/>
      </g>
     </g>
    </g>
    <g id="xtick_16">
     <g id="line2d_40">
      <g>
       <use xlink:href="#m64089776c0" x="296.588092" y="378" style="stroke: #000000; stroke-width: 0.8"/>
      </g>
     </g>
     <g id="text_37">
      <!-- 300 -->
      <g transform="translate(287.044342 392.598437)scale(0.1 -0.1)">
       <use xlink:href="#DejaVuSans-33"/>
       <use xlink:href="#DejaVuSans-30" x="63.623047"/>
       <use xlink:href="#DejaVuSans-30" x="127.246094"/>
      </g>
     </g>
    </g>
   </g>
   <g id="matplotlib.axis_8">
    <g id="ytick_19">
     <g id="line2d_41">
      <g>
       <use xlink:href="#m97930c39d4" x="108" y="378" style="stroke: #000000; stroke-width: 0.8"/>
      </g>
     </g>
     <g id="text_38">
      <!-- −0.4 -->
      <g transform="translate(76.717187 381.799219)scale(0.1 -0.1)">
       <use xlink:href="#DejaVuSans-2212"/>
       <use xlink:href="#DejaVuSans-30" x="83.789062"/>
       <use xlink:href="#DejaVuSans-2e" x="147.412109"/>
       <use xlink:href="#DejaVuSans-34" x="179.199219"/>
      </g>
     </g>
    </g>
    <g id="ytick_20">
     <g id="line2d_42">
      <g>
       <use xlink:href="#m97930c39d4" x="108" y="351.044628" style="stroke: #000000; stroke-width: 0.8"/>
      </g>
     </g>
     <g id="text_39">
      <!-- −0.2 -->
      <g transform="translate(76.717187 354.843847)scale(0.1 -0.1)">
       <use xlink:href="#DejaVuSans-2212"/>
       <use xlink:href="#DejaVuSans-30" x="83.789062"/>
       <use xlink:href="#DejaVuSans-2e" x="147.412109"/>
       <use xlink:href="#DejaVuSans-32" x="179.199219"/>
      </g>
     </g>
    </g>
    <g id="ytick_21">
     <g id="line2d_43">
      <g>
       <use xlink:href="#m97930c39d4" x="108" y="324.089256" style="stroke: #000000; stroke-width: 0.8"/>
      </g>
     </g>
     <g id="text_40">
      <!-- 0.0 -->
      <g transform="translate(85.096875 327.888475)scale(0.1 -0.1)">
       <use xlink:href="#DejaVuSans-30"/>
       <use xlink:href="#DejaVuSans-2e" x="63.623047"/>
       <use xlink:href="#DejaVuSans-30" x="95.410156"/>
      </g>
     </g>
    </g>
    <g id="ytick_22">
     <g id="line2d_44">
      <g>
       <use xlink:href="#m97930c39d4" x="108" y="297.133884" style="stroke: #000000; stroke-width: 0.8"/>
      </g>
     </g>
     <g id="text_41">
      <!-- 0.2 -->
      <g transform="translate(85.096875 300.933103)scale(0.1 -0.1)">
       <use xlink:href="#DejaVuSans-30"/>
       <use xlink:href="#DejaVuSans-2e" x="63.623047"/>
       <use xlink:href="#DejaVuSans-32" x="95.410156"/>
      </g>
     </g>
    </g>
    <g id="ytick_23">
     <g id="line2d_45">
      <g>
       <use xlink:href="#m97930c39d4" x="108" y="270.178512" style="stroke: #000000; stroke-width: 0.8"/>
      </g>
     </g>
     <g id="text_42">
      <!-- 0.4 -->
      <g transform="translate(85.096875 273.977731)scale(0.1 -0.1)">
       <use xlink:href="#DejaVuSans-30"/>
       <use xlink:href="#DejaVuSans-2e" x="63.623047"/>
       <use xlink:href="#DejaVuSans-34" x="95.410156"/>
      </g>
     </g>
    </g>
    <g id="ytick_24">
     <g id="line2d_46">
      <g>
       <use xlink:href="#m97930c39d4" x="108" y="243.22314" style="stroke: #000000; stroke-width: 0.8"/>
      </g>
     </g>
     <g id="text_43">
      <!-- 0.6 -->
      <g transform="translate(85.096875 247.022359)scale(0.1 -0.1)">
       <use xlink:href="#DejaVuSans-30"/>
       <use xlink:href="#DejaVuSans-2e" x="63.623047"/>
       <use xlink:href="#DejaVuSans-36" x="95.410156"/>
      </g>
     </g>
    </g>
   </g>
   <g id="line2d_47">
    <path d="M 116.951872 341.802095 
L 117.550659 351.791297 
L 118.149446 349.147188 
L 119.945809 336.537933 
L 120.544596 332.440176 
L 121.143383 330.162878 
L 121.742171 329.278941 
L 122.340958 328.086483 
L 123.538533 328.800909 
L 124.13732 328.823613 
L 124.736108 328.389492 
L 125.334895 328.869253 
L 127.730045 329.503248 
L 128.328832 330.309851 
L 129.526407 329.943941 
L 130.723982 330.107059 
L 131.322769 329.673512 
L 131.921557 329.885219 
L 132.520344 329.680131 
L 133.119132 328.693066 
L 133.717919 328.235417 
L 134.316706 328.355523 
L 134.915494 328.184313 
L 135.514281 327.291085 
L 136.113069 327.558944 
L 136.711856 326.810525 
L 137.310643 327.133296 
L 137.909431 325.671075 
L 138.508218 325.246848 
L 139.107006 326.129352 
L 139.705793 326.349938 
L 140.30458 326.713717 
L 140.903368 326.379707 
L 141.502155 326.995962 
L 142.100943 328.133726 
L 142.69973 327.670211 
L 143.298517 327.727751 
L 143.897305 327.348857 
L 144.496092 326.59656 
L 145.09488 326.216543 
L 146.292454 325.783809 
L 146.891242 326.124899 
L 147.490029 326.620472 
L 148.088817 326.41841 
L 148.687604 327.124439 
L 149.286391 326.302838 
L 149.885179 326.827918 
L 150.483966 326.445314 
L 151.082754 326.614945 
L 152.280328 326.339202 
L 152.879116 326.999917 
L 153.477903 326.099001 
L 154.076691 326.736958 
L 154.675478 325.491892 
L 155.274265 325.807898 
L 155.873053 326.624526 
L 157.070628 327.418433 
L 158.268202 327.579728 
L 158.86699 327.196778 
L 160.064565 325.500156 
L 160.663352 325.060119 
L 161.262139 324.292531 
L 161.860927 324.537143 
L 162.459714 324.594207 
L 163.058502 324.991643 
L 163.657289 326.177156 
L 164.854864 326.207286 
L 165.453651 326.55321 
L 166.052439 326.260099 
L 166.651226 326.462356 
L 167.848801 325.741721 
L 168.447588 326.197097 
L 169.046376 326.118446 
L 169.645163 325.137529 
L 170.24395 325.052743 
L 170.842738 324.455242 
L 171.441525 324.624983 
L 172.040313 325.375944 
L 173.237887 326.423169 
L 173.836675 326.454629 
L 174.435462 325.591496 
L 175.03425 326.646137 
L 175.633037 325.513875 
L 176.830612 323.920701 
L 177.429399 324.139888 
L 178.028187 324.526562 
L 178.626974 324.70884 
L 179.225761 325.184951 
L 179.824549 325.167833 
L 180.423336 325.264073 
L 181.620911 324.688066 
L 182.219698 324.023823 
L 182.818486 323.71432 
L 183.417273 324.195943 
L 184.016061 324.035868 
L 184.614848 324.570751 
L 185.213635 324.025383 
L 185.812423 324.155213 
L 186.41121 324.992329 
L 187.009998 325.30448 
L 187.608785 324.901258 
L 188.207572 324.973931 
L 188.80636 325.328832 
L 189.405147 324.802236 
L 190.602722 324.222208 
L 191.800297 323.813228 
L 192.399084 323.72198 
L 192.997872 324.173981 
L 193.596659 324.29736 
L 194.195446 325.097506 
L 194.794234 324.672313 
L 195.393021 324.575978 
L 195.991809 324.319133 
L 196.590596 324.429245 
L 197.189384 323.948579 
L 197.788171 323.931539 
L 198.386958 324.712739 
L 198.985746 325.239978 
L 199.584533 324.500806 
L 200.183321 325.619102 
L 201.380895 325.664296 
L 201.979683 326.738144 
L 202.57847 326.424452 
L 203.177258 326.844132 
L 203.776045 327.080341 
L 204.374832 326.018747 
L 204.97362 325.987598 
L 205.572407 324.502791 
L 206.171195 324.532198 
L 206.769982 322.382768 
L 207.368769 321.952202 
L 207.967557 320.378541 
L 208.566344 319.761201 
L 209.763919 310.01068 
L 210.961494 297.412801 
L 211.560281 292.19706 
L 213.356643 268.036836 
L 213.955431 263.363563 
L 214.554218 260.172055 
L 215.153006 258.556714 
L 215.751793 258.316507 
L 216.35058 258.460279 
L 216.949368 259.072214 
L 217.548155 260.777222 
L 218.146943 264.304578 
L 219.344517 273.900976 
L 222.937242 319.58313 
L 223.536029 324.725535 
L 224.134817 327.84675 
L 224.733604 327.937661 
L 225.332391 327.565879 
L 225.931179 324.788507 
L 226.529966 322.868458 
L 227.727541 316.13596 
L 228.326328 314.178854 
L 228.925116 313.082889 
L 229.523903 313.227293 
L 230.122691 313.251728 
L 230.721478 314.535898 
L 231.320265 316.113517 
L 231.919053 316.226637 
L 232.51784 318.003286 
L 233.116628 319.020023 
L 233.715415 320.905997 
L 234.314202 321.608284 
L 234.91299 322.731759 
L 235.511777 324.483698 
L 236.110565 323.903328 
L 236.709352 324.445672 
L 237.308139 323.819442 
L 237.906927 324.10232 
L 238.505714 324.069867 
L 239.104502 325.486792 
L 239.703289 323.759876 
L 240.302076 323.280425 
L 240.900864 322.335131 
L 241.499651 322.431855 
L 242.098439 322.772524 
L 242.697226 322.520952 
L 243.296013 323.190988 
L 243.894801 322.910377 
L 244.493588 323.446531 
L 245.092376 324.166907 
L 245.691163 324.363139 
L 246.28995 324.964293 
L 246.888738 325.30771 
L 247.487525 324.990722 
L 248.086313 325.689609 
L 248.6851 325.893295 
L 249.283887 325.66551 
L 249.882675 326.421456 
L 250.481462 325.353532 
L 251.08025 325.368519 
L 251.679037 325.161196 
L 252.277824 325.257064 
L 252.876612 325.035186 
L 253.475399 324.955621 
L 254.074187 325.104355 
L 254.672974 324.640881 
L 255.271761 325.549324 
L 255.870549 324.647067 
L 256.469336 324.975189 
L 257.068124 325.128198 
L 257.666911 325.053627 
L 258.265698 324.644316 
L 258.864486 324.751218 
L 259.463273 325.608926 
L 260.062061 326.141052 
L 260.660848 325.569821 
L 262.45721 328.415926 
L 263.055998 327.884902 
L 263.654785 328.362476 
L 264.253573 327.612542 
L 264.85236 327.279341 
L 265.451147 325.802535 
L 266.049935 325.914713 
L 266.648722 325.622665 
L 267.24751 325.140302 
L 267.846297 325.155906 
L 268.445084 326.22458 
L 269.043872 326.358766 
L 269.642659 327.476359 
L 270.241447 327.667618 
L 270.840234 328.953438 
L 271.439021 328.12581 
L 272.037809 328.044274 
L 272.636596 327.628675 
L 273.235384 327.502127 
L 273.834171 327.830257 
L 274.432958 328.3657 
L 275.031746 327.767179 
L 275.630533 327.798119 
L 276.229321 327.519444 
L 276.828108 326.457521 
L 277.426895 327.243771 
L 278.025683 326.418631 
L 278.62447 327.262705 
L 279.223258 327.13477 
L 279.822045 327.421279 
L 280.420832 327.48699 
L 281.01962 328.06532 
L 281.618407 328.858413 
L 282.217195 327.894418 
L 282.815982 327.998906 
L 283.414769 327.970743 
L 284.013557 328.154531 
L 284.612344 328.851068 
L 285.211132 328.326166 
L 285.809919 328.00619 
L 286.408706 327.845872 
L 287.007494 327.96507 
L 287.606281 327.380121 
L 288.803856 327.397693 
L 289.402643 327.583953 
L 290.001431 327.341786 
L 290.600218 327.513548 
L 291.199006 327.858629 
L 292.39658 327.418547 
L 294.192943 325.302007 
L 294.79173 323.657917 
L 295.390517 325.372483 
L 295.989305 325.87404 
L 295.989305 325.87404 
" clip-path="url(#p1b0a09d530)" style="fill: none; stroke: #1f77b4; stroke-width: 1.5; stroke-linecap: square"/>
   </g>
   <g id="patch_21">
    <path d="M 108 378 
L 108 229.745455 
" style="fill: none; stroke: #000000; stroke-width: 0.8; stroke-linejoin: miter; stroke-linecap: square"/>
   </g>
   <g id="patch_22">
    <path d="M 304.941176 378 
L 304.941176 229.745455 
" style="fill: none; stroke: #000000; stroke-width: 0.8; stroke-linejoin: miter; stroke-linecap: square"/>
   </g>
   <g id="patch_23">
    <path d="M 108 378 
L 304.941176 378 
" style="fill: none; stroke: #000000; stroke-width: 0.8; stroke-linejoin: miter; stroke-linecap: square"/>
   </g>
   <g id="patch_24">
    <path d="M 108 229.745455 
L 304.941176 229.745455 
" style="fill: none; stroke: #000000; stroke-width: 0.8; stroke-linejoin: miter; stroke-linecap: square"/>
   </g>
   <g id="legend_4">
    <g id="patch_25">
     <path d="M 248.216176 252.42358 
L 297.941176 252.42358 
Q 299.941176 252.42358 299.941176 250.42358 
L 299.941176 236.745455 
Q 299.941176 234.745455 297.941176 234.745455 
L 248.216176 234.745455 
Q 246.216176 234.745455 246.216176 236.745455 
L 246.216176 250.42358 
Q 246.216176 252.42358 248.216176 252.42358 
z
" style="fill: #ffffff; opacity: 0.8; stroke: #cccccc; stroke-linejoin: miter"/>
    </g>
    <g id="line2d_48">
     <path d="M 250.216176 242.843892 
L 260.216176 242.843892 
L 270.216176 242.843892 
" style="fill: none; stroke: #1f77b4; stroke-width: 1.5; stroke-linecap: square"/>
    </g>
    <g id="text_44">
     <!-- 54° -->
     <g transform="translate(278.216176 246.343892)scale(0.1 -0.1)">
      <defs>
       <path id="DejaVuSans-35" d="M 691 4666 
L 3169 4666 
L 3169 4134 
L 1269 4134 
L 1269 2991 
Q 1406 3038 1543 3061 
Q 1681 3084 1819 3084 
Q 2600 3084 3056 2656 
Q 3513 2228 3513 1497 
Q 3513 744 3044 326 
Q 2575 -91 1722 -91 
Q 1428 -91 1123 -41 
Q 819 9 494 109 
L 494 744 
Q 775 591 1075 516 
Q 1375 441 1709 441 
Q 2250 441 2565 725 
Q 2881 1009 2881 1497 
Q 2881 1984 2565 2268 
Q 2250 2553 1709 2553 
Q 1456 2553 1204 2497 
Q 953 2441 691 2322 
L 691 4666 
z
" transform="scale(0.015625)"/>
      </defs>
      <use xlink:href="#DejaVuSans-35"/>
      <use xlink:href="#DejaVuSans-34" x="63.623047"/>
      <use xlink:href="#DejaVuSans-b0" x="127.246094"/>
     </g>
    </g>
   </g>
  </g>
  <g id="axes_5">
   <g id="patch_26">
    <path d="M 344.329412 378 
L 541.270588 378 
L 541.270588 229.745455 
L 344.329412 229.745455 
z
" style="fill: #ffffff"/>
   </g>
   <g id="matplotlib.axis_9">
    <g id="xtick_17">
     <g id="line2d_49">
      <g>
       <use xlink:href="#m64089776c0" x="353.281283" y="378" style="stroke: #000000; stroke-width: 0.8"/>
      </g>
     </g>
     <g id="text_45">
      <!-- 0 -->
      <g transform="translate(350.100033 392.598437)scale(0.1 -0.1)">
       <use xlink:href="#DejaVuSans-30"/>
      </g>
     </g>
    </g>
    <g id="xtick_18">
     <g id="line2d_50">
      <g>
       <use xlink:href="#m64089776c0" x="413.160024" y="378" style="stroke: #000000; stroke-width: 0.8"/>
      </g>
     </g>
     <g id="text_46">
      <!-- 100 -->
      <g transform="translate(403.616274 392.598437)scale(0.1 -0.1)">
       <use xlink:href="#DejaVuSans-31"/>
       <use xlink:href="#DejaVuSans-30" x="63.623047"/>
       <use xlink:href="#DejaVuSans-30" x="127.246094"/>
      </g>
     </g>
    </g>
    <g id="xtick_19">
     <g id="line2d_51">
      <g>
       <use xlink:href="#m64089776c0" x="473.038764" y="378" style="stroke: #000000; stroke-width: 0.8"/>
      </g>
     </g>
     <g id="text_47">
      <!-- 200 -->
      <g transform="translate(463.495014 392.598437)scale(0.1 -0.1)">
       <use xlink:href="#DejaVuSans-32"/>
       <use xlink:href="#DejaVuSans-30" x="63.623047"/>
       <use xlink:href="#DejaVuSans-30" x="127.246094"/>
      </g>
     </g>
    </g>
    <g id="xtick_20">
     <g id="line2d_52">
      <g>
       <use xlink:href="#m64089776c0" x="532.917504" y="378" style="stroke: #000000; stroke-width: 0.8"/>
      </g>
     </g>
     <g id="text_48">
      <!-- 300 -->
      <g transform="translate(523.373754 392.598437)scale(0.1 -0.1)">
       <use xlink:href="#DejaVuSans-33"/>
       <use xlink:href="#DejaVuSans-30" x="63.623047"/>
       <use xlink:href="#DejaVuSans-30" x="127.246094"/>
      </g>
     </g>
    </g>
   </g>
   <g id="matplotlib.axis_10">
    <g id="ytick_25">
     <g id="line2d_53">
      <g>
       <use xlink:href="#m97930c39d4" x="344.329412" y="378" style="stroke: #000000; stroke-width: 0.8"/>
      </g>
     </g>
     <g id="text_49">
      <!-- −0.4 -->
      <g transform="translate(313.046599 381.799219)scale(0.1 -0.1)">
       <use xlink:href="#DejaVuSans-2212"/>
       <use xlink:href="#DejaVuSans-30" x="83.789062"/>
       <use xlink:href="#DejaVuSans-2e" x="147.412109"/>
       <use xlink:href="#DejaVuSans-34" x="179.199219"/>
      </g>
     </g>
    </g>
    <g id="ytick_26">
     <g id="line2d_54">
      <g>
       <use xlink:href="#m97930c39d4" x="344.329412" y="351.044628" style="stroke: #000000; stroke-width: 0.8"/>
      </g>
     </g>
     <g id="text_50">
      <!-- −0.2 -->
      <g transform="translate(313.046599 354.843847)scale(0.1 -0.1)">
       <use xlink:href="#DejaVuSans-2212"/>
       <use xlink:href="#DejaVuSans-30" x="83.789062"/>
       <use xlink:href="#DejaVuSans-2e" x="147.412109"/>
       <use xlink:href="#DejaVuSans-32" x="179.199219"/>
      </g>
     </g>
    </g>
    <g id="ytick_27">
     <g id="line2d_55">
      <g>
       <use xlink:href="#m97930c39d4" x="344.329412" y="324.089256" style="stroke: #000000; stroke-width: 0.8"/>
      </g>
     </g>
     <g id="text_51">
      <!-- 0.0 -->
      <g transform="translate(321.426287 327.888475)scale(0.1 -0.1)">
       <use xlink:href="#DejaVuSans-30"/>
       <use xlink:href="#DejaVuSans-2e" x="63.623047"/>
       <use xlink:href="#DejaVuSans-30" x="95.410156"/>
      </g>
     </g>
    </g>
    <g id="ytick_28">
     <g id="line2d_56">
      <g>
       <use xlink:href="#m97930c39d4" x="344.329412" y="297.133884" style="stroke: #000000; stroke-width: 0.8"/>
      </g>
     </g>
     <g id="text_52">
      <!-- 0.2 -->
      <g transform="translate(321.426287 300.933103)scale(0.1 -0.1)">
       <use xlink:href="#DejaVuSans-30"/>
       <use xlink:href="#DejaVuSans-2e" x="63.623047"/>
       <use xlink:href="#DejaVuSans-32" x="95.410156"/>
      </g>
     </g>
    </g>
    <g id="ytick_29">
     <g id="line2d_57">
      <g>
       <use xlink:href="#m97930c39d4" x="344.329412" y="270.178512" style="stroke: #000000; stroke-width: 0.8"/>
      </g>
     </g>
     <g id="text_53">
      <!-- 0.4 -->
      <g transform="translate(321.426287 273.977731)scale(0.1 -0.1)">
       <use xlink:href="#DejaVuSans-30"/>
       <use xlink:href="#DejaVuSans-2e" x="63.623047"/>
       <use xlink:href="#DejaVuSans-34" x="95.410156"/>
      </g>
     </g>
    </g>
    <g id="ytick_30">
     <g id="line2d_58">
      <g>
       <use xlink:href="#m97930c39d4" x="344.329412" y="243.22314" style="stroke: #000000; stroke-width: 0.8"/>
      </g>
     </g>
     <g id="text_54">
      <!-- 0.6 -->
      <g transform="translate(321.426287 247.022359)scale(0.1 -0.1)">
       <use xlink:href="#DejaVuSans-30"/>
       <use xlink:href="#DejaVuSans-2e" x="63.623047"/>
       <use xlink:href="#DejaVuSans-36" x="95.410156"/>
      </g>
     </g>
    </g>
   </g>
   <g id="line2d_59">
    <path d="M 353.281283 326.599246 
L 353.880071 349.793961 
L 354.478858 358.325411 
L 355.077646 361.640034 
L 355.676433 361.113438 
L 356.27522 360.181527 
L 357.472795 355.241299 
L 358.071583 353.097448 
L 359.269157 347.403171 
L 359.867945 345.735923 
L 360.466732 343.07266 
L 361.06552 342.528674 
L 361.664307 342.580644 
L 362.263094 342.257179 
L 362.861882 342.567265 
L 363.460669 343.657869 
L 365.257031 345.185382 
L 365.855819 345.32166 
L 366.454606 346.165006 
L 367.652181 345.471526 
L 368.250968 345.744813 
L 368.849756 345.158422 
L 369.448543 345.782262 
L 370.047331 344.818142 
L 370.646118 344.571368 
L 371.244905 343.528042 
L 371.843693 342.942853 
L 372.44248 342.526198 
L 373.041268 340.73307 
L 373.640055 340.494811 
L 374.238842 340.744784 
L 374.83763 341.383282 
L 375.436417 341.08979 
L 376.035205 340.462282 
L 376.633992 340.934381 
L 377.232779 340.542864 
L 377.831567 339.595256 
L 378.430354 340.521871 
L 379.029142 340.157993 
L 379.627929 341.140178 
L 380.226717 341.899554 
L 380.825504 342.218083 
L 382.023079 342.306844 
L 382.621866 341.692927 
L 383.220654 340.638055 
L 383.819441 340.430927 
L 384.418228 339.849907 
L 385.017016 339.031736 
L 385.615803 336.864271 
L 386.214591 336.698133 
L 386.813378 335.6797 
L 387.412165 335.070273 
L 388.010953 336.476094 
L 389.807315 337.823744 
L 391.00489 338.851 
L 391.603677 339.692361 
L 392.202465 339.408408 
L 392.801252 340.292529 
L 393.400039 339.876392 
L 393.998827 340.077311 
L 394.597614 339.873269 
L 395.196402 338.123863 
L 395.795189 338.383085 
L 396.393976 338.136791 
L 396.992764 339.373438 
L 397.591551 339.949192 
L 398.190339 339.946742 
L 398.789126 338.908815 
L 399.387913 338.171272 
L 399.986701 336.279929 
L 400.585488 335.729398 
L 401.184276 334.991053 
L 401.783063 335.387036 
L 402.38185 336.033259 
L 402.980638 336.154688 
L 403.579425 338.002581 
L 404.777 338.314516 
L 405.974575 338.127793 
L 406.573362 338.449968 
L 407.770937 338.219025 
L 408.369724 337.539816 
L 408.968512 338.595007 
L 409.567299 338.032917 
L 410.166087 338.16967 
L 410.764874 339.034989 
L 411.363661 337.270338 
L 412.561236 337.269619 
L 413.160024 337.54188 
L 413.758811 337.566226 
L 414.357598 337.949472 
L 416.153961 337.727441 
L 416.752748 337.892105 
L 417.351535 337.899245 
L 417.950323 337.442713 
L 419.147898 338.003148 
L 419.746685 338.876457 
L 420.345472 338.490194 
L 420.94426 338.315306 
L 421.543047 337.764708 
L 422.141835 336.299779 
L 422.740622 335.829779 
L 423.339409 335.88667 
L 423.938197 335.337512 
L 424.536984 335.465253 
L 425.135772 335.979889 
L 425.734559 336.073618 
L 426.333346 336.949876 
L 427.530921 337.274126 
L 428.129709 338.56197 
L 428.728496 338.041542 
L 429.327283 338.585921 
L 429.926071 338.116682 
L 430.524858 338.422286 
L 431.722433 338.127294 
L 432.920008 337.893955 
L 433.518795 336.787084 
L 434.117583 336.602708 
L 434.71637 336.963545 
L 435.315157 338.065583 
L 435.913945 337.220571 
L 436.512732 336.746675 
L 437.11152 336.550318 
L 438.309094 335.022341 
L 438.907882 335.047017 
L 439.506669 334.766739 
L 440.704244 336.368923 
L 441.303031 336.621187 
L 441.901819 337.618982 
L 442.500606 336.282372 
L 443.099394 333.472834 
L 443.698181 329.914903 
L 444.296969 323.437029 
L 444.895756 314.925766 
L 445.494543 308.15583 
L 446.093331 306.513462 
L 446.692118 307.321658 
L 447.290906 306.619948 
L 447.889693 300.53744 
L 450.284843 255.085581 
L 450.88363 247.831778 
L 451.482417 244.724571 
L 452.081205 239.889252 
L 452.679992 237.917585 
L 453.27878 235.490709 
L 453.877567 235.753986 
L 454.476354 234.478681 
L 455.075142 235.761867 
L 455.673929 237.887274 
L 456.272717 237.886909 
L 457.470291 244.604738 
L 458.667866 254.799398 
L 459.865441 271.575743 
L 461.063016 291.401945 
L 462.260591 317.588859 
L 463.458165 345.088032 
L 464.65574 356.98974 
L 465.254528 356.538984 
L 465.853315 353.942958 
L 467.05089 341.47801 
L 467.649677 334.30153 
L 468.847252 324.37846 
L 469.446039 322.352654 
L 470.044827 321.832835 
L 470.643614 322.62775 
L 471.242402 324.610878 
L 471.841189 328.010441 
L 472.439976 330.420029 
L 473.038764 333.498991 
L 473.637551 335.740631 
L 474.236339 339.080888 
L 474.835126 339.305252 
L 475.433913 341.000959 
L 476.032701 338.964371 
L 476.631488 342.154171 
L 477.230276 343.593462 
L 477.829063 337.517735 
L 478.42785 333.3864 
L 479.026638 331.977631 
L 479.625425 331.797562 
L 480.224213 332.758087 
L 480.823 331.167946 
L 481.421787 332.908208 
L 482.020575 332.803465 
L 482.619362 334.407921 
L 483.21815 334.724554 
L 483.816937 335.596191 
L 484.415724 335.486944 
L 485.613299 337.479094 
L 486.212087 337.992215 
L 486.810874 338.232492 
L 487.409661 338.046945 
L 488.008449 337.6387 
L 488.607236 338.077 
L 489.206024 337.030379 
L 489.804811 337.011085 
L 490.403598 337.639026 
L 491.002386 336.975855 
L 492.798748 338.165822 
L 493.397535 337.96087 
L 493.996323 338.423287 
L 495.193898 337.819071 
L 495.792685 339.068192 
L 496.391472 338.332366 
L 496.99026 339.426137 
L 497.589047 338.251177 
L 498.187835 337.656997 
L 498.786622 336.746788 
L 499.984197 336.615479 
L 500.582984 337.097673 
L 501.181772 336.299059 
L 501.780559 336.092373 
L 502.379346 336.242991 
L 502.978134 336.682249 
L 503.576921 335.252613 
L 504.175709 334.370018 
L 504.774496 334.302296 
L 505.972071 335.247111 
L 506.570858 335.075907 
L 507.768433 336.63319 
L 508.367221 336.975922 
L 508.966008 338.321572 
L 509.564795 337.290529 
L 510.163583 336.93224 
L 510.76237 337.313204 
L 511.361158 337.223275 
L 511.959945 337.492617 
L 512.558732 338.24781 
L 513.15752 337.91262 
L 513.756307 336.711579 
L 514.355095 336.367582 
L 514.953882 336.340686 
L 515.552669 335.485068 
L 516.151457 335.015325 
L 516.750244 334.739219 
L 517.349032 333.758469 
L 517.947819 333.997621 
L 518.546606 333.693722 
L 519.145394 333.729731 
L 519.744181 333.413684 
L 520.342969 333.753795 
L 520.941756 335.197906 
L 521.540543 336.133338 
L 522.139331 335.120879 
L 522.738118 335.354669 
L 523.336906 335.424541 
L 523.935693 335.103166 
L 524.53448 334.366675 
L 525.732055 335.059694 
L 526.330843 335.382867 
L 526.92963 335.480467 
L 528.127205 336.262917 
L 528.725992 337.104502 
L 529.923567 336.637846 
L 530.522354 336.188229 
L 531.121142 336.706464 
L 531.719929 335.433752 
L 532.318717 336.022861 
L 532.318717 336.022861 
" clip-path="url(#p03a454c838)" style="fill: none; stroke: #1f77b4; stroke-width: 1.5; stroke-linecap: square"/>
   </g>
   <g id="patch_27">
    <path d="M 344.329412 378 
L 344.329412 229.745455 
" style="fill: none; stroke: #000000; stroke-width: 0.8; stroke-linejoin: miter; stroke-linecap: square"/>
   </g>
   <g id="patch_28">
    <path d="M 541.270588 378 
L 541.270588 229.745455 
" style="fill: none; stroke: #000000; stroke-width: 0.8; stroke-linejoin: miter; stroke-linecap: square"/>
   </g>
   <g id="patch_29">
    <path d="M 344.329412 378 
L 541.270588 378 
" style="fill: none; stroke: #000000; stroke-width: 0.8; stroke-linejoin: miter; stroke-linecap: square"/>
   </g>
   <g id="patch_30">
    <path d="M 344.329412 229.745455 
L 541.270588 229.745455 
" style="fill: none; stroke: #000000; stroke-width: 0.8; stroke-linejoin: miter; stroke-linecap: square"/>
   </g>
   <g id="legend_5">
    <g id="patch_31">
     <path d="M 484.545588 252.42358 
L 534.270588 252.42358 
Q 536.270588 252.42358 536.270588 250.42358 
L 536.270588 236.745455 
Q 536.270588 234.745455 534.270588 234.745455 
L 484.545588 234.745455 
Q 482.545588 234.745455 482.545588 236.745455 
L 482.545588 250.42358 
Q 482.545588 252.42358 484.545588 252.42358 
z
" style="fill: #ffffff; opacity: 0.8; stroke: #cccccc; stroke-linejoin: miter"/>
    </g>
    <g id="line2d_60">
     <path d="M 486.545588 242.843892 
L 496.545588 242.843892 
L 506.545588 242.843892 
" style="fill: none; stroke: #1f77b4; stroke-width: 1.5; stroke-linecap: square"/>
    </g>
    <g id="text_55">
     <!-- 72° -->
     <g transform="translate(514.545588 246.343892)scale(0.1 -0.1)">
      <defs>
       <path id="DejaVuSans-37" d="M 525 4666 
L 3525 4666 
L 3525 4397 
L 1831 0 
L 1172 0 
L 2766 4134 
L 525 4134 
L 525 4666 
z
" transform="scale(0.015625)"/>
      </defs>
      <use xlink:href="#DejaVuSans-37"/>
      <use xlink:href="#DejaVuSans-32" x="63.623047"/>
      <use xlink:href="#DejaVuSans-b0" x="127.246094"/>
     </g>
    </g>
   </g>
  </g>
  <g id="axes_6">
   <g id="patch_32">
    <path d="M 580.658824 378 
L 777.6 378 
L 777.6 229.745455 
L 580.658824 229.745455 
z
" style="fill: #ffffff"/>
   </g>
   <g id="matplotlib.axis_11">
    <g id="xtick_21">
     <g id="line2d_61">
      <g>
       <use xlink:href="#m64089776c0" x="589.610695" y="378" style="stroke: #000000; stroke-width: 0.8"/>
      </g>
     </g>
     <g id="text_56">
      <!-- 0 -->
      <g transform="translate(586.429445 392.598437)scale(0.1 -0.1)">
       <use xlink:href="#DejaVuSans-30"/>
      </g>
     </g>
    </g>
    <g id="xtick_22">
     <g id="line2d_62">
      <g>
       <use xlink:href="#m64089776c0" x="649.489435" y="378" style="stroke: #000000; stroke-width: 0.8"/>
      </g>
     </g>
     <g id="text_57">
      <!-- 100 -->
      <g transform="translate(639.945685 392.598437)scale(0.1 -0.1)">
       <use xlink:href="#DejaVuSans-31"/>
       <use xlink:href="#DejaVuSans-30" x="63.623047"/>
       <use xlink:href="#DejaVuSans-30" x="127.246094"/>
      </g>
     </g>
    </g>
    <g id="xtick_23">
     <g id="line2d_63">
      <g>
       <use xlink:href="#m64089776c0" x="709.368176" y="378" style="stroke: #000000; stroke-width: 0.8"/>
      </g>
     </g>
     <g id="text_58">
      <!-- 200 -->
      <g transform="translate(699.824426 392.598437)scale(0.1 -0.1)">
       <use xlink:href="#DejaVuSans-32"/>
       <use xlink:href="#DejaVuSans-30" x="63.623047"/>
       <use xlink:href="#DejaVuSans-30" x="127.246094"/>
      </g>
     </g>
    </g>
    <g id="xtick_24">
     <g id="line2d_64">
      <g>
       <use xlink:href="#m64089776c0" x="769.246916" y="378" style="stroke: #000000; stroke-width: 0.8"/>
      </g>
     </g>
     <g id="text_59">
      <!-- 300 -->
      <g transform="translate(759.703166 392.598437)scale(0.1 -0.1)">
       <use xlink:href="#DejaVuSans-33"/>
       <use xlink:href="#DejaVuSans-30" x="63.623047"/>
       <use xlink:href="#DejaVuSans-30" x="127.246094"/>
      </g>
     </g>
    </g>
   </g>
   <g id="matplotlib.axis_12">
    <g id="ytick_31">
     <g id="line2d_65">
      <g>
       <use xlink:href="#m97930c39d4" x="580.658824" y="378" style="stroke: #000000; stroke-width: 0.8"/>
      </g>
     </g>
     <g id="text_60">
      <!-- −0.4 -->
      <g transform="translate(549.376011 381.799219)scale(0.1 -0.1)">
       <use xlink:href="#DejaVuSans-2212"/>
       <use xlink:href="#DejaVuSans-30" x="83.789062"/>
       <use xlink:href="#DejaVuSans-2e" x="147.412109"/>
       <use xlink:href="#DejaVuSans-34" x="179.199219"/>
      </g>
     </g>
    </g>
    <g id="ytick_32">
     <g id="line2d_66">
      <g>
       <use xlink:href="#m97930c39d4" x="580.658824" y="351.044628" style="stroke: #000000; stroke-width: 0.8"/>
      </g>
     </g>
     <g id="text_61">
      <!-- −0.2 -->
      <g transform="translate(549.376011 354.843847)scale(0.1 -0.1)">
       <use xlink:href="#DejaVuSans-2212"/>
       <use xlink:href="#DejaVuSans-30" x="83.789062"/>
       <use xlink:href="#DejaVuSans-2e" x="147.412109"/>
       <use xlink:href="#DejaVuSans-32" x="179.199219"/>
      </g>
     </g>
    </g>
    <g id="ytick_33">
     <g id="line2d_67">
      <g>
       <use xlink:href="#m97930c39d4" x="580.658824" y="324.089256" style="stroke: #000000; stroke-width: 0.8"/>
      </g>
     </g>
     <g id="text_62">
      <!-- 0.0 -->
      <g transform="translate(557.755699 327.888475)scale(0.1 -0.1)">
       <use xlink:href="#DejaVuSans-30"/>
       <use xlink:href="#DejaVuSans-2e" x="63.623047"/>
       <use xlink:href="#DejaVuSans-30" x="95.410156"/>
      </g>
     </g>
    </g>
    <g id="ytick_34">
     <g id="line2d_68">
      <g>
       <use xlink:href="#m97930c39d4" x="580.658824" y="297.133884" style="stroke: #000000; stroke-width: 0.8"/>
      </g>
     </g>
     <g id="text_63">
      <!-- 0.2 -->
      <g transform="translate(557.755699 300.933103)scale(0.1 -0.1)">
       <use xlink:href="#DejaVuSans-30"/>
       <use xlink:href="#DejaVuSans-2e" x="63.623047"/>
       <use xlink:href="#DejaVuSans-32" x="95.410156"/>
      </g>
     </g>
    </g>
    <g id="ytick_35">
     <g id="line2d_69">
      <g>
       <use xlink:href="#m97930c39d4" x="580.658824" y="270.178512" style="stroke: #000000; stroke-width: 0.8"/>
      </g>
     </g>
     <g id="text_64">
      <!-- 0.4 -->
      <g transform="translate(557.755699 273.977731)scale(0.1 -0.1)">
       <use xlink:href="#DejaVuSans-30"/>
       <use xlink:href="#DejaVuSans-2e" x="63.623047"/>
       <use xlink:href="#DejaVuSans-34" x="95.410156"/>
      </g>
     </g>
    </g>
    <g id="ytick_36">
     <g id="line2d_70">
      <g>
       <use xlink:href="#m97930c39d4" x="580.658824" y="243.22314" style="stroke: #000000; stroke-width: 0.8"/>
      </g>
     </g>
     <g id="text_65">
      <!-- 0.6 -->
      <g transform="translate(557.755699 247.022359)scale(0.1 -0.1)">
       <use xlink:href="#DejaVuSans-30"/>
       <use xlink:href="#DejaVuSans-2e" x="63.623047"/>
       <use xlink:href="#DejaVuSans-36" x="95.410156"/>
      </g>
     </g>
    </g>
   </g>
   <g id="line2d_71">
    <path d="M 589.610695 326.550193 
L 590.209483 354.872218 
L 590.80827 362.612551 
L 591.407057 365.360122 
L 592.005845 365.14007 
L 593.20342 361.740587 
L 593.802207 360.219169 
L 594.400994 357.939776 
L 594.999782 356.743643 
L 595.598569 352.805616 
L 596.197357 353.121923 
L 596.796144 351.204343 
L 597.394931 351.716577 
L 597.993719 352.013341 
L 598.592506 350.902854 
L 599.191294 348.508891 
L 599.790081 350.132529 
L 600.388868 350.019825 
L 600.987656 348.572694 
L 601.586443 348.419496 
L 602.185231 349.345509 
L 602.784018 350.013043 
L 603.382805 349.340329 
L 603.981593 348.8929 
L 604.58038 348.891066 
L 605.179168 349.164168 
L 605.777955 348.089925 
L 606.97553 347.55014 
L 607.574317 348.060293 
L 608.173105 347.008528 
L 608.771892 348.437939 
L 609.370679 347.582479 
L 609.969467 348.278096 
L 610.568254 348.233074 
L 611.167042 347.210349 
L 611.765829 346.556088 
L 612.364616 348.172977 
L 612.963404 348.140207 
L 613.562191 347.351445 
L 614.160979 346.895268 
L 614.759766 344.872417 
L 615.358553 344.453994 
L 615.957341 343.267664 
L 616.556128 343.353563 
L 617.154916 342.317655 
L 617.753703 340.915899 
L 618.35249 342.272322 
L 618.951278 342.380708 
L 619.550065 343.014521 
L 620.148853 344.457722 
L 620.74764 343.632626 
L 621.346427 343.327929 
L 621.945215 344.411204 
L 622.544002 343.07009 
L 623.741577 342.363963 
L 624.340364 343.168176 
L 624.939152 340.466074 
L 625.537939 341.730379 
L 626.136727 341.193681 
L 626.735514 342.080237 
L 627.334302 343.236367 
L 627.933089 343.730529 
L 628.531876 343.592833 
L 629.130664 344.987307 
L 629.729451 343.277579 
L 630.328239 342.965787 
L 630.927026 343.822463 
L 632.124601 342.713514 
L 632.723388 342.491971 
L 633.322176 342.025819 
L 633.920963 341.403321 
L 634.51975 342.166606 
L 635.118538 342.26284 
L 635.717325 341.528791 
L 636.316113 341.935901 
L 636.9149 344.232772 
L 638.112475 341.619617 
L 638.711262 341.460222 
L 639.31005 341.582621 
L 639.908837 341.493047 
L 640.507624 340.730191 
L 641.106412 341.224127 
L 641.705199 342.289962 
L 642.303987 341.425725 
L 642.902774 342.626918 
L 643.501561 342.918921 
L 644.699136 342.383114 
L 645.297924 343.397363 
L 645.896711 342.799917 
L 646.495498 342.526946 
L 647.094286 341.490207 
L 647.693073 341.582184 
L 648.291861 340.448123 
L 648.890648 339.998931 
L 649.489435 341.567616 
L 650.088223 341.564817 
L 650.68701 341.363717 
L 651.884585 341.350262 
L 652.483372 341.975989 
L 653.08216 342.100353 
L 653.680947 339.647959 
L 654.878522 338.751966 
L 655.477309 339.387998 
L 656.076097 339.002883 
L 657.273672 340.015388 
L 658.471246 340.171239 
L 659.070034 339.263137 
L 659.668821 339.096505 
L 660.267609 339.517917 
L 660.866396 338.349711 
L 661.465183 337.763141 
L 662.063971 337.599099 
L 662.662758 337.780628 
L 663.261546 337.680583 
L 663.860333 337.73007 
L 664.45912 339.138743 
L 665.057908 339.935131 
L 665.656695 339.372929 
L 666.255483 339.419993 
L 666.85427 339.855821 
L 667.453057 338.882481 
L 668.051845 339.614689 
L 668.650632 339.022759 
L 669.24942 338.123249 
L 669.848207 339.874257 
L 670.446994 339.563302 
L 671.045782 337.960318 
L 672.243357 339.688175 
L 672.842144 339.124389 
L 673.440931 340.099342 
L 674.039719 339.207266 
L 674.638506 338.711422 
L 675.237294 338.595382 
L 675.836081 338.774417 
L 677.033656 337.658266 
L 677.632443 337.250883 
L 678.231231 334.220107 
L 678.830018 329.04786 
L 680.027593 315.966018 
L 680.62638 313.447016 
L 681.225168 314.675255 
L 681.823955 318.364117 
L 682.422742 323.102365 
L 683.02153 323.335073 
L 684.219105 302.742604 
L 684.817892 289.347271 
L 685.416679 280.538884 
L 686.015467 274.235599 
L 686.614254 275.808754 
L 687.213042 279.632122 
L 687.811829 286.965658 
L 688.410616 287.979274 
L 689.009404 283.744669 
L 689.608191 281.931514 
L 690.206979 269.213582 
L 690.805766 265.736306 
L 691.404554 264.571132 
L 692.003341 265.719629 
L 693.200916 262.029511 
L 693.799703 260.801601 
L 694.398491 251.487383 
L 694.997278 254.933403 
L 695.596065 259.233638 
L 696.194853 260.473687 
L 696.79364 256.646643 
L 697.392428 264.113445 
L 697.991215 269.684968 
L 698.590002 278.493141 
L 699.18879 280.375833 
L 699.787577 283.827856 
L 700.386365 296.810106 
L 700.985152 293.846494 
L 701.583939 294.72226 
L 702.182727 288.81306 
L 702.781514 292.141195 
L 703.380302 284.098279 
L 703.979089 284.144676 
L 704.577876 281.965798 
L 705.775451 282.072061 
L 706.374239 283.314802 
L 706.973026 290.09477 
L 707.571813 298.669617 
L 709.368176 331.914483 
L 710.56575 357.883514 
L 711.164538 365.497841 
L 711.763325 367.445849 
L 712.362113 367.245107 
L 712.9609 364.797452 
L 713.559687 360.665415 
L 714.158475 357.601183 
L 715.954837 338.437985 
L 717.152412 331.536838 
L 717.751199 331.234753 
L 718.948774 336.140792 
L 719.547561 340.604387 
L 720.146349 343.837565 
L 721.343924 349.095331 
L 721.942711 348.16959 
L 722.541498 347.651122 
L 723.140286 344.902274 
L 723.739073 343.578269 
L 724.337861 342.785341 
L 724.936648 341.783527 
L 725.535435 340.436956 
L 726.134223 340.910166 
L 726.73301 340.68932 
L 727.331798 340.69942 
L 727.930585 341.035352 
L 728.529372 340.93894 
L 729.12816 340.976194 
L 729.726947 342.317387 
L 730.924522 340.504438 
L 731.523309 340.613309 
L 732.122097 340.878083 
L 733.319672 340.479056 
L 733.918459 341.334925 
L 734.517246 340.572668 
L 735.116034 343.20679 
L 735.714821 342.723771 
L 736.313609 342.817331 
L 736.912396 342.093183 
L 737.511183 341.788025 
L 738.109971 342.433412 
L 738.708758 340.800233 
L 739.307546 340.646251 
L 739.906333 339.65533 
L 740.50512 339.173977 
L 741.103908 337.369043 
L 741.702695 338.485055 
L 742.301483 338.43818 
L 742.90027 339.406766 
L 743.499057 337.458389 
L 744.097845 339.589413 
L 744.696632 340.382445 
L 745.894207 339.05429 
L 746.492994 337.478887 
L 747.091782 338.892199 
L 747.690569 338.895219 
L 748.289357 338.260435 
L 748.888144 339.269434 
L 749.486931 339.611921 
L 750.684506 337.977565 
L 751.283294 337.818059 
L 751.882081 337.427948 
L 753.079656 339.851112 
L 753.678443 340.008597 
L 754.277231 339.450641 
L 754.876018 339.505238 
L 755.474806 338.19232 
L 756.073593 339.075877 
L 756.67238 338.384621 
L 757.271168 339.174763 
L 759.06753 340.483771 
L 759.666317 341.296651 
L 760.265105 341.056119 
L 760.863892 339.849595 
L 761.46268 339.984276 
L 762.061467 338.79638 
L 762.660254 338.972632 
L 763.259042 339.438435 
L 763.857829 340.95163 
L 764.456617 340.671289 
L 765.654191 343.168797 
L 766.252979 343.641247 
L 766.851766 343.931609 
L 767.450554 341.009385 
L 768.049341 337.149814 
L 768.648128 335.814317 
L 768.648128 335.814317 
" clip-path="url(#p12f3870b1a)" style="fill: none; stroke: #1f77b4; stroke-width: 1.5; stroke-linecap: square"/>
   </g>
   <g id="patch_33">
    <path d="M 580.658824 378 
L 580.658824 229.745455 
" style="fill: none; stroke: #000000; stroke-width: 0.8; stroke-linejoin: miter; stroke-linecap: square"/>
   </g>
   <g id="patch_34">
    <path d="M 777.6 378 
L 777.6 229.745455 
" style="fill: none; stroke: #000000; stroke-width: 0.8; stroke-linejoin: miter; stroke-linecap: square"/>
   </g>
   <g id="patch_35">
    <path d="M 580.658824 378 
L 777.6 378 
" style="fill: none; stroke: #000000; stroke-width: 0.8; stroke-linejoin: miter; stroke-linecap: square"/>
   </g>
   <g id="patch_36">
    <path d="M 580.658824 229.745455 
L 777.6 229.745455 
" style="fill: none; stroke: #000000; stroke-width: 0.8; stroke-linejoin: miter; stroke-linecap: square"/>
   </g>
   <g id="legend_6">
    <g id="patch_37">
     <path d="M 720.875 252.42358 
L 770.6 252.42358 
Q 772.6 252.42358 772.6 250.42358 
L 772.6 236.745455 
Q 772.6 234.745455 770.6 234.745455 
L 720.875 234.745455 
Q 718.875 234.745455 718.875 236.745455 
L 718.875 250.42358 
Q 718.875 252.42358 720.875 252.42358 
z
" style="fill: #ffffff; opacity: 0.8; stroke: #cccccc; stroke-linejoin: miter"/>
    </g>
    <g id="line2d_72">
     <path d="M 722.875 242.843892 
L 732.875 242.843892 
L 742.875 242.843892 
" style="fill: none; stroke: #1f77b4; stroke-width: 1.5; stroke-linecap: square"/>
    </g>
    <g id="text_66">
     <!-- 90° -->
     <g transform="translate(750.875 246.343892)scale(0.1 -0.1)">
      <defs>
       <path id="DejaVuSans-39" d="M 703 97 
L 703 672 
Q 941 559 1184 500 
Q 1428 441 1663 441 
Q 2288 441 2617 861 
Q 2947 1281 2994 2138 
Q 2813 1869 2534 1725 
Q 2256 1581 1919 1581 
Q 1219 1581 811 2004 
Q 403 2428 403 3163 
Q 403 3881 828 4315 
Q 1253 4750 1959 4750 
Q 2769 4750 3195 4129 
Q 3622 3509 3622 2328 
Q 3622 1225 3098 567 
Q 2575 -91 1691 -91 
Q 1453 -91 1209 -44 
Q 966 3 703 97 
z
M 1959 2075 
Q 2384 2075 2632 2365 
Q 2881 2656 2881 3163 
Q 2881 3666 2632 3958 
Q 2384 4250 1959 4250 
Q 1534 4250 1286 3958 
Q 1038 3666 1038 3163 
Q 1038 2656 1286 2365 
Q 1534 2075 1959 2075 
z
" transform="scale(0.015625)"/>
      </defs>
      <use xlink:href="#DejaVuSans-39"/>
      <use xlink:href="#DejaVuSans-30" x="63.623047"/>
      <use xlink:href="#DejaVuSans-b0" x="127.246094"/>
     </g>
    </g>
   </g>
  </g>
  <g id="text_67">
   <!-- Recorder Index -->
   <g transform="translate(386.683125 409.39125)scale(0.12 -0.12)">
    <defs>
     <path id="DejaVuSans-52" d="M 2841 2188 
Q 3044 2119 3236 1894 
Q 3428 1669 3622 1275 
L 4263 0 
L 3584 0 
L 2988 1197 
Q 2756 1666 2539 1819 
Q 2322 1972 1947 1972 
L 1259 1972 
L 1259 0 
L 628 0 
L 628 4666 
L 2053 4666 
Q 2853 4666 3247 4331 
Q 3641 3997 3641 3322 
Q 3641 2881 3436 2590 
Q 3231 2300 2841 2188 
z
M 1259 4147 
L 1259 2491 
L 2053 2491 
Q 2509 2491 2742 2702 
Q 2975 2913 2975 3322 
Q 2975 3731 2742 3939 
Q 2509 4147 2053 4147 
L 1259 4147 
z
" transform="scale(0.015625)"/>
     <path id="DejaVuSans-65" d="M 3597 1894 
L 3597 1613 
L 953 1613 
Q 991 1019 1311 708 
Q 1631 397 2203 397 
Q 2534 397 2845 478 
Q 3156 559 3463 722 
L 3463 178 
Q 3153 47 2828 -22 
Q 2503 -91 2169 -91 
Q 1331 -91 842 396 
Q 353 884 353 1716 
Q 353 2575 817 3079 
Q 1281 3584 2069 3584 
Q 2775 3584 3186 3129 
Q 3597 2675 3597 1894 
z
M 3022 2063 
Q 3016 2534 2758 2815 
Q 2500 3097 2075 3097 
Q 1594 3097 1305 2825 
Q 1016 2553 972 2059 
L 3022 2063 
z
" transform="scale(0.015625)"/>
     <path id="DejaVuSans-63" d="M 3122 3366 
L 3122 2828 
Q 2878 2963 2633 3030 
Q 2388 3097 2138 3097 
Q 1578 3097 1268 2742 
Q 959 2388 959 1747 
Q 959 1106 1268 751 
Q 1578 397 2138 397 
Q 2388 397 2633 464 
Q 2878 531 3122 666 
L 3122 134 
Q 2881 22 2623 -34 
Q 2366 -91 2075 -91 
Q 1284 -91 818 406 
Q 353 903 353 1747 
Q 353 2603 823 3093 
Q 1294 3584 2113 3584 
Q 2378 3584 2631 3529 
Q 2884 3475 3122 3366 
z
" transform="scale(0.015625)"/>
     <path id="DejaVuSans-6f" d="M 1959 3097 
Q 1497 3097 1228 2736 
Q 959 2375 959 1747 
Q 959 1119 1226 758 
Q 1494 397 1959 397 
Q 2419 397 2687 759 
Q 2956 1122 2956 1747 
Q 2956 2369 2687 2733 
Q 2419 3097 1959 3097 
z
M 1959 3584 
Q 2709 3584 3137 3096 
Q 3566 2609 3566 1747 
Q 3566 888 3137 398 
Q 2709 -91 1959 -91 
Q 1206 -91 779 398 
Q 353 888 353 1747 
Q 353 2609 779 3096 
Q 1206 3584 1959 3584 
z
" transform="scale(0.015625)"/>
     <path id="DejaVuSans-72" d="M 2631 2963 
Q 2534 3019 2420 3045 
Q 2306 3072 2169 3072 
Q 1681 3072 1420 2755 
Q 1159 2438 1159 1844 
L 1159 0 
L 581 0 
L 581 3500 
L 1159 3500 
L 1159 2956 
Q 1341 3275 1631 3429 
Q 1922 3584 2338 3584 
Q 2397 3584 2469 3576 
Q 2541 3569 2628 3553 
L 2631 2963 
z
" transform="scale(0.015625)"/>
     <path id="DejaVuSans-64" d="M 2906 2969 
L 2906 4863 
L 3481 4863 
L 3481 0 
L 2906 0 
L 2906 525 
Q 2725 213 2448 61 
Q 2172 -91 1784 -91 
Q 1150 -91 751 415 
Q 353 922 353 1747 
Q 353 2572 751 3078 
Q 1150 3584 1784 3584 
Q 2172 3584 2448 3432 
Q 2725 3281 2906 2969 
z
M 947 1747 
Q 947 1113 1208 752 
Q 1469 391 1925 391 
Q 2381 391 2643 752 
Q 2906 1113 2906 1747 
Q 2906 2381 2643 2742 
Q 2381 3103 1925 3103 
Q 1469 3103 1208 2742 
Q 947 2381 947 1747 
z
" transform="scale(0.015625)"/>
     <path id="DejaVuSans-20" transform="scale(0.015625)"/>
     <path id="DejaVuSans-49" d="M 628 4666 
L 1259 4666 
L 1259 0 
L 628 0 
L 628 4666 
z
" transform="scale(0.015625)"/>
     <path id="DejaVuSans-6e" d="M 3513 2113 
L 3513 0 
L 2938 0 
L 2938 2094 
Q 2938 2591 2744 2837 
Q 2550 3084 2163 3084 
Q 1697 3084 1428 2787 
Q 1159 2491 1159 1978 
L 1159 0 
L 581 0 
L 581 3500 
L 1159 3500 
L 1159 2956 
Q 1366 3272 1645 3428 
Q 1925 3584 2291 3584 
Q 2894 3584 3203 3211 
Q 3513 2838 3513 2113 
z
" transform="scale(0.015625)"/>
     <path id="DejaVuSans-78" d="M 3513 3500 
L 2247 1797 
L 3578 0 
L 2900 0 
L 1881 1375 
L 863 0 
L 184 0 
L 1544 1831 
L 300 3500 
L 978 3500 
L 1906 2253 
L 2834 3500 
L 3513 3500 
z
" transform="scale(0.015625)"/>
    </defs>
    <use xlink:href="#DejaVuSans-52"/>
    <use xlink:href="#DejaVuSans-65" x="64.982422"/>
    <use xlink:href="#DejaVuSans-63" x="126.505859"/>
    <use xlink:href="#DejaVuSans-6f" x="181.486328"/>
    <use xlink:href="#DejaVuSans-72" x="242.667969"/>
    <use xlink:href="#DejaVuSans-64" x="282.03125"/>
    <use xlink:href="#DejaVuSans-65" x="345.507812"/>
    <use xlink:href="#DejaVuSans-72" x="407.03125"/>
    <use xlink:href="#DejaVuSans-20" x="448.144531"/>
    <use xlink:href="#DejaVuSans-49" x="479.931641"/>
    <use xlink:href="#DejaVuSans-6e" x="509.423828"/>
    <use xlink:href="#DejaVuSans-64" x="572.802734"/>
    <use xlink:href="#DejaVuSans-65" x="636.279297"/>
    <use xlink:href="#DejaVuSans-78" x="696.052734"/>
   </g>
  </g>
  <g id="text_68">
   <!-- Average Error -->
   <g transform="translate(68.11125 257.168437)rotate(-90)scale(0.12 -0.12)">
    <defs>
     <path id="DejaVuSans-41" d="M 2188 4044 
L 1331 1722 
L 3047 1722 
L 2188 4044 
z
M 1831 4666 
L 2547 4666 
L 4325 0 
L 3669 0 
L 3244 1197 
L 1141 1197 
L 716 0 
L 50 0 
L 1831 4666 
z
" transform="scale(0.015625)"/>
     <path id="DejaVuSans-76" d="M 191 3500 
L 800 3500 
L 1894 563 
L 2988 3500 
L 3597 3500 
L 2284 0 
L 1503 0 
L 191 3500 
z
" transform="scale(0.015625)"/>
     <path id="DejaVuSans-61" d="M 2194 1759 
Q 1497 1759 1228 1600 
Q 959 1441 959 1056 
Q 959 750 1161 570 
Q 1363 391 1709 391 
Q 2188 391 2477 730 
Q 2766 1069 2766 1631 
L 2766 1759 
L 2194 1759 
z
M 3341 1997 
L 3341 0 
L 2766 0 
L 2766 531 
Q 2569 213 2275 61 
Q 1981 -91 1556 -91 
Q 1019 -91 701 211 
Q 384 513 384 1019 
Q 384 1609 779 1909 
Q 1175 2209 1959 2209 
L 2766 2209 
L 2766 2266 
Q 2766 2663 2505 2880 
Q 2244 3097 1772 3097 
Q 1472 3097 1187 3025 
Q 903 2953 641 2809 
L 641 3341 
Q 956 3463 1253 3523 
Q 1550 3584 1831 3584 
Q 2591 3584 2966 3190 
Q 3341 2797 3341 1997 
z
" transform="scale(0.015625)"/>
     <path id="DejaVuSans-67" d="M 2906 1791 
Q 2906 2416 2648 2759 
Q 2391 3103 1925 3103 
Q 1463 3103 1205 2759 
Q 947 2416 947 1791 
Q 947 1169 1205 825 
Q 1463 481 1925 481 
Q 2391 481 2648 825 
Q 2906 1169 2906 1791 
z
M 3481 434 
Q 3481 -459 3084 -895 
Q 2688 -1331 1869 -1331 
Q 1566 -1331 1297 -1286 
Q 1028 -1241 775 -1147 
L 775 -588 
Q 1028 -725 1275 -790 
Q 1522 -856 1778 -856 
Q 2344 -856 2625 -561 
Q 2906 -266 2906 331 
L 2906 616 
Q 2728 306 2450 153 
Q 2172 0 1784 0 
Q 1141 0 747 490 
Q 353 981 353 1791 
Q 353 2603 747 3093 
Q 1141 3584 1784 3584 
Q 2172 3584 2450 3431 
Q 2728 3278 2906 2969 
L 2906 3500 
L 3481 3500 
L 3481 434 
z
" transform="scale(0.015625)"/>
     <path id="DejaVuSans-45" d="M 628 4666 
L 3578 4666 
L 3578 4134 
L 1259 4134 
L 1259 2753 
L 3481 2753 
L 3481 2222 
L 1259 2222 
L 1259 531 
L 3634 531 
L 3634 0 
L 628 0 
L 628 4666 
z
" transform="scale(0.015625)"/>
    </defs>
    <use xlink:href="#DejaVuSans-41"/>
    <use xlink:href="#DejaVuSans-76" x="62.533203"/>
    <use xlink:href="#DejaVuSans-65" x="121.712891"/>
    <use xlink:href="#DejaVuSans-72" x="183.236328"/>
    <use xlink:href="#DejaVuSans-61" x="224.349609"/>
    <use xlink:href="#DejaVuSans-67" x="285.628906"/>
    <use xlink:href="#DejaVuSans-65" x="349.105469"/>
    <use xlink:href="#DejaVuSans-20" x="410.628906"/>
    <use xlink:href="#DejaVuSans-45" x="442.416016"/>
    <use xlink:href="#DejaVuSans-72" x="505.599609"/>
    <use xlink:href="#DejaVuSans-72" x="544.962891"/>
    <use xlink:href="#DejaVuSans-6f" x="583.826172"/>
    <use xlink:href="#DejaVuSans-72" x="645.007812"/>
   </g>
  </g>
 </g>
 <defs>
  <clipPath id="p52e25dd505">
   <rect x="108" y="51.84" width="196.941176" height="148.254545"/>
  </clipPath>
  <clipPath id="pc5c712bd0f">
   <rect x="344.329412" y="51.84" width="196.941176" height="148.254545"/>
  </clipPath>
  <clipPath id="p0528d1b9e0">
   <rect x="580.658824" y="51.84" width="196.941176" height="148.254545"/>
  </clipPath>
  <clipPath id="p1b0a09d530">
   <rect x="108" y="229.745455" width="196.941176" height="148.254545"/>
  </clipPath>
  <clipPath id="p03a454c838">
   <rect x="344.329412" y="229.745455" width="196.941176" height="148.254545"/>
  </clipPath>
  <clipPath id="p12f3870b1a">
   <rect x="580.658824" y="229.745455" width="196.941176" height="148.254545"/>
  </clipPath>
 </defs>
</svg>
